<?xml version="1.0" encoding="utf-8"?>
<!-- Generator: Adobe Illustrator 18.1.1, SVG Export Plug-In . SVG Version: 6.00 Build 0)  -->
<!DOCTYPE svg PUBLIC "-//W3C//DTD SVG 1.1//EN" "http://www.w3.org/Graphics/SVG/1.1/DTD/svg11.dtd">
<svg version="1.1" id="Layer_1" xmlns="http://www.w3.org/2000/svg" xmlns:xlink="http://www.w3.org/1999/xlink" x="0px" y="0px"
	 viewBox="0 0 713.3 424.6" enable-background="new 0 0 713.3 424.6" xml:space="preserve">
<g>
	<path fill-rule="evenodd" clip-rule="evenodd" fill="#DADADA" d="M213.2,48.2c91.2,0,165.2,74,165.2,165.2
		c0,91.2-74,165.2-165.2,165.2C122,378.5,48,304.5,48,213.4C48,122.2,122,48.2,213.2,48.2L213.2,48.2z"/>
	<path fill-rule="evenodd" clip-rule="evenodd" fill="#DADADA" d="M225.5,41.1c3.2,0,5.8,2.5,5.8,5.6c0,3.1-2.6,5.6-5.8,5.6
		c-3.2,0-5.8-2.5-5.8-5.6C219.7,43.6,222.3,41.1,225.5,41.1L225.5,41.1z"/>
	<path fill-rule="evenodd" clip-rule="evenodd" fill="#DADADA" d="M238.1,34.1c3.2,0,5.8,2.5,5.8,5.6c0,3.1-2.6,5.6-5.8,5.6
		c-3.2,0-5.8-2.5-5.8-5.6C232.3,36.6,234.9,34.1,238.1,34.1L238.1,34.1z"/>
	<path fill-rule="evenodd" clip-rule="evenodd" fill="#DADADA" d="M248.1,44.2c3.2,0,5.8,2.5,5.8,5.6c0,3.1-2.6,5.6-5.8,5.6
		c-3.2,0-5.8-2.5-5.8-5.6C242.3,46.7,244.9,44.2,248.1,44.2L248.1,44.2z"/>
	<path fill-rule="evenodd" clip-rule="evenodd" fill="#DADADA" d="M261.6,39c3.2,0,5.8,2.5,5.8,5.6c0,3.1-2.6,5.6-5.8,5.6
		c-3.2,0-5.8-2.5-5.8-5.6C255.8,41.5,258.4,39,261.6,39L261.6,39z"/>
	<path fill-rule="evenodd" clip-rule="evenodd" fill="#DADADA" d="M270.4,50.3c3.2,0,5.8,2.5,5.8,5.6c0,3.1-2.6,5.6-5.8,5.6
		c-3.2,0-5.8-2.5-5.8-5.6C264.6,52.8,267.2,50.3,270.4,50.3L270.4,50.3z"/>
	<path fill-rule="evenodd" clip-rule="evenodd" fill="#DADADA" d="M285.4,47.5c3.2,0,5.8,2.5,5.8,5.6c0,3.1-2.6,5.6-5.8,5.6
		c-3.2,0-5.8-2.5-5.8-5.6C279.6,50,282.2,47.5,285.4,47.5L285.4,47.5z"/>
	<path fill-rule="evenodd" clip-rule="evenodd" fill="#DADADA" d="M291.5,59.4c3.2,0,5.8,2.5,5.8,5.6c0,3.1-2.6,5.6-5.8,5.6
		c-3.2,0-5.8-2.5-5.8-5.6C285.7,61.9,288.3,59.4,291.5,59.4L291.5,59.4z"/>
	<path fill-rule="evenodd" clip-rule="evenodd" fill="#DADADA" d="M305.8,58.2c3.2,0,5.8,2.5,5.8,5.6c0,3.1-2.6,5.6-5.8,5.6
		c-3.2,0-5.8-2.5-5.8-5.6C300,60.7,302.6,58.2,305.8,58.2L305.8,58.2z"/>
	<path fill-rule="evenodd" clip-rule="evenodd" fill="#DADADA" d="M310.9,71c3.2,0,5.8,2.5,5.8,5.6c0,3.1-2.6,5.6-5.8,5.6
		c-3.2,0-5.8-2.5-5.8-5.6C305.1,73.5,307.7,71,310.9,71L310.9,71z"/>
	<path fill-rule="evenodd" clip-rule="evenodd" fill="#DADADA" d="M325.5,72.3c3.2,0,5.8,2.5,5.8,5.6c0,3.1-2.6,5.6-5.8,5.6
		c-3.2,0-5.8-2.5-5.8-5.6C319.7,74.8,322.3,72.3,325.5,72.3L325.5,72.3z"/>
	<path fill-rule="evenodd" clip-rule="evenodd" fill="#DADADA" d="M328.3,85.4c3.2,0,5.8,2.5,5.8,5.6c0,3.1-2.6,5.6-5.8,5.6
		c-3.2,0-5.8-2.5-5.8-5.6C322.5,87.9,325.1,85.4,328.3,85.4L328.3,85.4z"/>
	<path fill-rule="evenodd" clip-rule="evenodd" fill="#DADADA" d="M342.3,88.4c3.2,0,5.8,2.5,5.8,5.6c0,3.1-2.6,5.6-5.8,5.6
		c-3.2,0-5.8-2.5-5.8-5.6C336.5,90.9,339.1,88.4,342.3,88.4L342.3,88.4z"/>
	<path fill-rule="evenodd" clip-rule="evenodd" fill="#DADADA" d="M343.5,101.6c3.2,0,5.8,2.5,5.8,5.6c0,3.1-2.6,5.6-5.8,5.6
		c-3.2,0-5.8-2.5-5.8-5.6C337.7,104.1,340.3,101.6,343.5,101.6L343.5,101.6z"/>
	<path fill-rule="evenodd" clip-rule="evenodd" fill="#DADADA" d="M357.6,106.4c3.2,0,5.8,2.5,5.8,5.6c0,3.1-2.6,5.6-5.8,5.6
		c-3.2,0-5.8-2.5-5.8-5.6C351.8,109,354.4,106.4,357.6,106.4L357.6,106.4z"/>
	<path fill-rule="evenodd" clip-rule="evenodd" fill="#DADADA" d="M356.3,119.6c3.2,0,5.8,2.5,5.8,5.6c0,3.1-2.6,5.6-5.8,5.6
		c-3.2,0-5.8-2.5-5.8-5.6C350.6,122.1,353.1,119.6,356.3,119.6L356.3,119.6z"/>
	<path fill-rule="evenodd" clip-rule="evenodd" fill="#DADADA" d="M369.3,125.1c3.2,0,5.8,2.5,5.8,5.6c0,3.1-2.6,5.6-5.8,5.6
		c-3.2,0-5.8-2.5-5.8-5.6C363.5,127.6,366.1,125.1,369.3,125.1L369.3,125.1z"/>
	<path fill-rule="evenodd" clip-rule="evenodd" fill="#DADADA" d="M390.5,214.5c3.2,0,5.8,2.5,5.8,5.6c0,3.1-2.6,5.6-5.8,5.6
		c-3.2,0-5.8-2.5-5.8-5.6C384.7,217,387.3,214.5,390.5,214.5L390.5,214.5z"/>
	<path fill-rule="evenodd" clip-rule="evenodd" fill="#DADADA" d="M381.4,202.6c3.2,0,5.8,2.5,5.8,5.6c0,3.1-2.6,5.6-5.8,5.6
		c-3.2,0-5.8-2.5-5.8-5.6C375.6,205.1,378.2,202.6,381.4,202.6L381.4,202.6z"/>
	<path fill-rule="evenodd" clip-rule="evenodd" fill="#DADADA" d="M389.6,190.7c3.2,0,5.8,2.5,5.8,5.6c0,3.1-2.6,5.6-5.8,5.6
		c-3.2,0-5.8-2.5-5.8-5.6C383.8,193.2,386.4,190.7,389.6,190.7L389.6,190.7z"/>
	<path fill-rule="evenodd" clip-rule="evenodd" fill="#DADADA" d="M379.3,180.9c3.2,0,5.8,2.5,5.8,5.6c0,3.1-2.6,5.6-5.8,5.6
		c-3.2,0-5.8-2.5-5.8-5.6C373.4,183.4,376,180.9,379.3,180.9L379.3,180.9z"/>
	<path fill-rule="evenodd" clip-rule="evenodd" fill="#DADADA" d="M386,168.4c3.2,0,5.8,2.5,5.8,5.6c0,3.1-2.6,5.6-5.8,5.6
		c-3.2,0-5.8-2.5-5.8-5.6C380.2,170.9,382.8,168.4,386,168.4L386,168.4z"/>
	<path fill-rule="evenodd" clip-rule="evenodd" fill="#DADADA" d="M374.4,159.6c3.2,0,5.8,2.5,5.8,5.6c0,3.1-2.6,5.6-5.8,5.6
		c-3.2,0-5.8-2.5-5.8-5.6C368.6,162.1,371.2,159.6,374.4,159.6L374.4,159.6z"/>
	<path fill-rule="evenodd" clip-rule="evenodd" fill="#DADADA" d="M379.3,146.4c3.2,0,5.8,2.5,5.8,5.6c0,3.1-2.6,5.6-5.8,5.6
		c-3.2,0-5.8-2.5-5.8-5.6C373.4,148.9,376,146.4,379.3,146.4L379.3,146.4z"/>
	<path fill-rule="evenodd" clip-rule="evenodd" fill="#DADADA" d="M367,138.8c3.2,0,5.8,2.5,5.8,5.6c0,3.1-2.6,5.6-5.8,5.6
		c-3.2,0-5.8-2.5-5.8-5.6C361.2,141.3,363.8,138.8,367,138.8L367,138.8z"/>
	<path fill-rule="evenodd" clip-rule="evenodd" fill="#DADADA" d="M364.3,300.6c3.2,0,5.8,2.5,5.8,5.6c0,3.1-2.6,5.6-5.8,5.6
		c-3.2,0-5.8-2.5-5.8-5.6C358.5,303.1,361.1,300.6,364.3,300.6L364.3,300.6z"/>
	<path fill-rule="evenodd" clip-rule="evenodd" fill="#DADADA" d="M361.8,287.2c3.2,0,5.8,2.5,5.8,5.6c0,3.1-2.6,5.6-5.8,5.6
		c-3.2,0-5.8-2.5-5.8-5.6C356,289.7,358.6,287.2,361.8,287.2L361.8,287.2z"/>
	<path fill-rule="evenodd" clip-rule="evenodd" fill="#DADADA" d="M374.7,281.1c3.2,0,5.8,2.5,5.8,5.6c0,3.1-2.6,5.6-5.8,5.6
		c-3.2,0-5.8-2.5-5.8-5.6C368.9,283.6,371.5,281.1,374.7,281.1L374.7,281.1z"/>
	<path fill-rule="evenodd" clip-rule="evenodd" fill="#DADADA" d="M370.4,267.3c3.2,0,5.8,2.5,5.8,5.6c0,3.1-2.6,5.6-5.8,5.6
		c-3.2,0-5.8-2.5-5.8-5.6C364.6,269.8,367.2,267.3,370.4,267.3L370.4,267.3z"/>
	<path fill-rule="evenodd" clip-rule="evenodd" fill="#DADADA" d="M382.9,259.7c3.2,0,5.8,2.5,5.8,5.6c0,3.1-2.6,5.6-5.8,5.6
		c-3.2,0-5.8-2.5-5.8-5.6C377.1,262.2,379.7,259.7,382.9,259.7L382.9,259.7z"/>
	<path fill-rule="evenodd" clip-rule="evenodd" fill="#DADADA" d="M377.1,246.3c3.2,0,5.8,2.5,5.8,5.6c0,3.1-2.6,5.6-5.8,5.6
		c-3.2,0-5.8-2.5-5.8-5.6C371.3,248.8,373.9,246.3,377.1,246.3L377.1,246.3z"/>
	<path fill-rule="evenodd" clip-rule="evenodd" fill="#DADADA" d="M388.4,236.8c3.2,0,5.8,2.5,5.8,5.6c0,3.1-2.6,5.6-5.8,5.6
		c-3.2,0-5.8-2.5-5.8-5.6C382.6,239.3,385.2,236.8,388.4,236.8L388.4,236.8z"/>
	<path fill-rule="evenodd" clip-rule="evenodd" fill="#DADADA" d="M380.8,224.6c3.2,0,5.8,2.5,5.8,5.6c0,3.1-2.6,5.6-5.8,5.6
		c-3.2,0-5.8-2.5-5.8-5.6C375,227.1,377.6,224.6,380.8,224.6L380.8,224.6z"/>
	<path fill-rule="evenodd" clip-rule="evenodd" fill="#DADADA" d="M298,362.9c3.2,0,5.8,2.5,5.8,5.6c0,3.1-2.6,5.6-5.8,5.6
		c-3.2,0-5.8-2.5-5.8-5.6C292.2,365.4,294.8,362.9,298,362.9L298,362.9z"/>
	<path fill-rule="evenodd" clip-rule="evenodd" fill="#DADADA" d="M303.5,350c3.2,0,5.8,2.5,5.8,5.6c0,3.1-2.6,5.6-5.8,5.6
		c-3.2,0-5.8-2.5-5.8-5.6C297.7,352.6,300.3,350,303.5,350L303.5,350z"/>
	<path fill-rule="evenodd" clip-rule="evenodd" fill="#DADADA" d="M317.6,351c3.2,0,5.8,2.5,5.8,5.6c0,3.1-2.6,5.6-5.8,5.6
		c-3.2,0-5.8-2.5-5.8-5.6C311.8,353.5,314.4,351,317.6,351L317.6,351z"/>
	<path fill-rule="evenodd" clip-rule="evenodd" fill="#DADADA" d="M321.2,337.2c3.2,0,5.8,2.5,5.8,5.6c0,3.1-2.6,5.6-5.8,5.6
		s-5.8-2.5-5.8-5.6C315.4,339.7,318,337.2,321.2,337.2L321.2,337.2z"/>
	<path fill-rule="evenodd" clip-rule="evenodd" fill="#DADADA" d="M335.3,336c3.2,0,5.8,2.5,5.8,5.6c0,3.1-2.6,5.6-5.8,5.6
		c-3.2,0-5.8-2.5-5.8-5.6C329.5,338.5,332.1,336,335.3,336L335.3,336z"/>
	<path fill-rule="evenodd" clip-rule="evenodd" fill="#DADADA" d="M337.1,322.3c3.2,0,5.8,2.5,5.8,5.6c0,3.1-2.6,5.6-5.8,5.6
		c-3.2,0-5.8-2.5-5.8-5.6C331.3,324.8,333.9,322.3,337.1,322.3L337.1,322.3z"/>
	<path fill-rule="evenodd" clip-rule="evenodd" fill="#DADADA" d="M350.6,319.5c3.2,0,5.8,2.5,5.8,5.6c0,3.1-2.6,5.6-5.8,5.6
		c-3.2,0-5.8-2.5-5.8-5.6C344.8,322,347.4,319.5,350.6,319.5L350.6,319.5z"/>
	<path fill-rule="evenodd" clip-rule="evenodd" fill="#DADADA" d="M351.2,305.8c3.2,0,5.8,2.5,5.8,5.6c0,3.1-2.6,5.6-5.8,5.6
		c-3.2,0-5.8-2.5-5.8-5.6C345.4,308.3,348,305.8,351.2,305.8L351.2,305.8z"/>
	<path fill-rule="evenodd" clip-rule="evenodd" fill="#DADADA" d="M206.3,384.5c3.2,0,5.8,2.5,5.8,5.6c0,3.1-2.6,5.6-5.8,5.6
		c-3.2,0-5.8-2.5-5.8-5.6C200.5,387,203.1,384.5,206.3,384.5L206.3,384.5z"/>
	<path fill-rule="evenodd" clip-rule="evenodd" fill="#DADADA" d="M218.7,376.3c3.2,0,5.8,2.5,5.8,5.6c0,3.1-2.6,5.6-5.8,5.6
		c-3.2,0-5.8-2.5-5.8-5.6C212.9,378.8,215.5,376.3,218.7,376.3L218.7,376.3z"/>
	<path fill-rule="evenodd" clip-rule="evenodd" fill="#DADADA" d="M230.6,384.2c3.2,0,5.8,2.5,5.8,5.6c0,3.1-2.6,5.6-5.8,5.6
		c-3.2,0-5.8-2.5-5.8-5.6C224.8,386.7,227.4,384.2,230.6,384.2L230.6,384.2z"/>
	<path fill-rule="evenodd" clip-rule="evenodd" fill="#DADADA" d="M241.3,373.9c3.2,0,5.8,2.5,5.8,5.6c0,3.1-2.6,5.6-5.8,5.6
		c-3.2,0-5.8-2.5-5.8-5.6C235.5,376.4,238.1,373.9,241.3,373.9L241.3,373.9z"/>
	<path fill-rule="evenodd" clip-rule="evenodd" fill="#DADADA" d="M253.8,380c3.2,0,5.8,2.5,5.8,5.6c0,3.1-2.6,5.6-5.8,5.6
		c-3.2,0-5.8-2.5-5.8-5.6C248,382.5,250.6,380,253.8,380L253.8,380z"/>
	<path fill-rule="evenodd" clip-rule="evenodd" fill="#DADADA" d="M263.2,368.7c3.2,0,5.8,2.5,5.8,5.6c0,3.1-2.6,5.6-5.8,5.6
		c-3.2,0-5.8-2.5-5.8-5.6C257.4,371.2,260,368.7,263.2,368.7L263.2,368.7z"/>
	<path fill-rule="evenodd" clip-rule="evenodd" fill="#DADADA" d="M276.4,373.3c3.2,0,5.8,2.5,5.8,5.6c0,3.1-2.6,5.6-5.8,5.6
		c-3.2,0-5.8-2.5-5.8-5.6C270.6,375.8,273.2,373.3,276.4,373.3L276.4,373.3z"/>
	<path fill-rule="evenodd" clip-rule="evenodd" fill="#DADADA" d="M284,361c3.2,0,5.8,2.5,5.8,5.6c0,3.1-2.6,5.6-5.8,5.6
		c-3.2,0-5.8-2.5-5.8-5.6C278.2,363.6,280.8,361,284,361L284,361z"/>
	<path fill-rule="evenodd" clip-rule="evenodd" fill="#DADADA" d="M117,355.8c3.2,0,5.8,2.5,5.8,5.6c0,3.1-2.6,5.6-5.8,5.6
		c-3.2,0-5.8-2.5-5.8-5.6C111.2,358.3,113.8,355.8,117,355.8L117,355.8z"/>
	<path fill-rule="evenodd" clip-rule="evenodd" fill="#DADADA" d="M131.4,354.9c3.2,0,5.8,2.5,5.8,5.6c0,3.1-2.6,5.6-5.8,5.6
		c-3.2,0-5.8-2.5-5.8-5.6C125.6,357.4,128.2,354.9,131.4,354.9L131.4,354.9z"/>
	<path fill-rule="evenodd" clip-rule="evenodd" fill="#DADADA" d="M137.5,367.4c3.2,0,5.8,2.5,5.8,5.6c0,3.1-2.6,5.6-5.8,5.6
		c-3.2,0-5.8-2.5-5.8-5.6C131.7,370,134.3,367.4,137.5,367.4L137.5,367.4z"/>
	<path fill-rule="evenodd" clip-rule="evenodd" fill="#DADADA" d="M151.8,364.4c3.2,0,5.8,2.5,5.8,5.6c0,3.1-2.6,5.6-5.8,5.6
		c-3.2,0-5.8-2.5-5.8-5.6C146,366.9,148.6,364.4,151.8,364.4L151.8,364.4z"/>
	<path fill-rule="evenodd" clip-rule="evenodd" fill="#DADADA" d="M159.1,376c3.2,0,5.8,2.5,5.8,5.6c0,3.1-2.6,5.6-5.8,5.6
		c-3.2,0-5.8-2.5-5.8-5.6C153.3,378.5,156,376,159.1,376L159.1,376z"/>
	<path fill-rule="evenodd" clip-rule="evenodd" fill="#DADADA" d="M173.2,371.4c3.2,0,5.8,2.5,5.8,5.6c0,3.1-2.6,5.6-5.8,5.6
		c-3.2,0-5.8-2.5-5.8-5.6C167.4,373.9,170,371.4,173.2,371.4L173.2,371.4z"/>
	<path fill-rule="evenodd" clip-rule="evenodd" fill="#DADADA" d="M182.3,381.8c3.2,0,5.8,2.5,5.8,5.6c0,3.1-2.6,5.6-5.8,5.6
		c-3.2,0-5.8-2.5-5.8-5.6C176.5,384.3,179.2,381.8,182.3,381.8L182.3,381.8z"/>
	<path fill-rule="evenodd" clip-rule="evenodd" fill="#DADADA" d="M195.5,375.7c3.2,0,5.8,2.5,5.8,5.6c0,3.1-2.6,5.6-5.8,5.6
		c-3.2,0-5.8-2.5-5.8-5.6C189.7,378.2,192.3,375.7,195.5,375.7L195.5,375.7z"/>
	<path fill-rule="evenodd" clip-rule="evenodd" fill="#DADADA" d="M56.3,287.8c3.2,0,5.8,2.5,5.8,5.6c0,3.1-2.6,5.6-5.8,5.6
		c-3.2,0-5.8-2.5-5.8-5.6C50.5,290.3,53.1,287.8,56.3,287.8L56.3,287.8z"/>
	<path fill-rule="evenodd" clip-rule="evenodd" fill="#DADADA" d="M69.1,293.9c3.2,0,5.8,2.5,5.8,5.6c0,3.1-2.6,5.6-5.8,5.6
		c-3.2,0-5.8-2.5-5.8-5.6C63.3,296.4,65.9,293.9,69.1,293.9L69.1,293.9z"/>
	<path fill-rule="evenodd" clip-rule="evenodd" fill="#DADADA" d="M67.9,307.6c3.2,0,5.8,2.5,5.8,5.6c0,3.1-2.6,5.6-5.8,5.6
		c-3.2,0-5.8-2.5-5.8-5.6C62.1,310.1,64.7,307.6,67.9,307.6L67.9,307.6z"/>
	<path fill-rule="evenodd" clip-rule="evenodd" fill="#DADADA" d="M81.9,312.2c3.2,0,5.8,2.5,5.8,5.6c0,3.1-2.6,5.6-5.8,5.6
		c-3.2,0-5.8-2.5-5.8-5.6C76.1,314.7,78.7,312.2,81.9,312.2L81.9,312.2z"/>
	<path fill-rule="evenodd" clip-rule="evenodd" fill="#DADADA" d="M82.5,325.9c3.2,0,5.8,2.5,5.8,5.6c0,3.1-2.6,5.6-5.8,5.6
		c-3.2,0-5.8-2.5-5.8-5.6C76.7,328.4,79.3,325.9,82.5,325.9L82.5,325.9z"/>
	<path fill-rule="evenodd" clip-rule="evenodd" fill="#DADADA" d="M96,329c3.2,0,5.8,2.5,5.8,5.6c0,3.1-2.6,5.6-5.8,5.6
		c-3.2,0-5.8-2.5-5.8-5.6C90.2,331.5,92.8,329,96,329L96,329z"/>
	<path fill-rule="evenodd" clip-rule="evenodd" fill="#DADADA" d="M99,342.4c3.2,0,5.8,2.5,5.8,5.6c0,3.1-2.6,5.6-5.8,5.6
		c-3.2,0-5.8-2.5-5.8-5.6C93.2,344.9,95.8,342.4,99,342.4L99,342.4z"/>
	<path fill-rule="evenodd" clip-rule="evenodd" fill="#DADADA" d="M112.7,343c3.2,0,5.8,2.5,5.8,5.6c0,3.1-2.6,5.6-5.8,5.6
		c-3.2,0-5.8-2.5-5.8-5.6C106.9,345.5,109.5,343,112.7,343L112.7,343z"/>
	<path fill-rule="evenodd" clip-rule="evenodd" fill="#DADADA" d="M37.6,199.9c3.2,0,5.8,2.5,5.8,5.6c0,3.1-2.6,5.6-5.8,5.6
		c-3.2,0-5.8-2.5-5.8-5.6C31.8,202.4,34.4,199.9,37.6,199.9L37.6,199.9z"/>
	<path fill-rule="evenodd" clip-rule="evenodd" fill="#DADADA" d="M45.6,210.5c3.2,0,5.8,2.5,5.8,5.6c0,3.1-2.6,5.6-5.8,5.6
		c-3.2,0-5.8-2.5-5.8-5.6C39.8,213.1,42.4,210.5,45.6,210.5L45.6,210.5z"/>
	<path fill-rule="evenodd" clip-rule="evenodd" fill="#DADADA" d="M38,222.1c3.2,0,5.8,2.5,5.8,5.6c0,3.1-2.6,5.6-5.8,5.6
		c-3.2,0-5.8-2.5-5.8-5.6C32.2,224.6,34.8,222.1,38,222.1L38,222.1z"/>
	<path fill-rule="evenodd" clip-rule="evenodd" fill="#DADADA" d="M47.4,232.2c3.2,0,5.8,2.5,5.8,5.6c0,3.1-2.6,5.6-5.8,5.6
		c-3.2,0-5.8-2.5-5.8-5.6C41.6,234.7,44.2,232.2,47.4,232.2L47.4,232.2z"/>
	<path fill-rule="evenodd" clip-rule="evenodd" fill="#DADADA" d="M41,244.4c3.2,0,5.8,2.5,5.8,5.6c0,3.1-2.6,5.6-5.8,5.6
		c-3.2,0-5.8-2.5-5.8-5.6C35.2,246.9,37.8,244.4,41,244.4L41,244.4z"/>
	<path fill-rule="evenodd" clip-rule="evenodd" fill="#DADADA" d="M51.7,253.6c3.2,0,5.8,2.5,5.8,5.6c0,3.1-2.6,5.6-5.8,5.6
		c-3.2,0-5.8-2.5-5.8-5.6C45.9,256.1,48.5,253.6,51.7,253.6L51.7,253.6z"/>
	<path fill-rule="evenodd" clip-rule="evenodd" fill="#DADADA" d="M47.4,267.3c3.2,0,5.8,2.5,5.8,5.6c0,3.1-2.6,5.6-5.8,5.6
		c-3.2,0-5.8-2.5-5.8-5.6C41.6,269.8,44.2,267.3,47.4,267.3L47.4,267.3z"/>
	<path fill-rule="evenodd" clip-rule="evenodd" fill="#DADADA" d="M59.3,274.6c3.2,0,5.8,2.5,5.8,5.6c0,3.1-2.6,5.6-5.8,5.6
		c-3.2,0-5.8-2.5-5.8-5.6C53.5,277.2,56.1,274.6,59.3,274.6L59.3,274.6z"/>
	<path fill-rule="evenodd" clip-rule="evenodd" fill="#DADADA" d="M63.7,116.2c3.2,0,5.8,2.5,5.8,5.6c0,3.1-2.6,5.6-5.8,5.6
		c-3.2,0-5.8-2.5-5.8-5.6C57.9,118.7,60.5,116.2,63.7,116.2L63.7,116.2z"/>
	<path fill-rule="evenodd" clip-rule="evenodd" fill="#DADADA" d="M65.4,129.3c3.2,0,5.8,2.5,5.8,5.6c0,3.1-2.6,5.6-5.8,5.6
		c-3.2,0-5.8-2.5-5.8-5.6C59.6,131.8,62.2,129.3,65.4,129.3L65.4,129.3z"/>
	<path fill-rule="evenodd" clip-rule="evenodd" fill="#DADADA" d="M52.9,136.1c3.2,0,5.8,2.5,5.8,5.6c0,3.1-2.6,5.6-5.8,5.6
		s-5.8-2.5-5.8-5.6C47.1,138.6,49.7,136.1,52.9,136.1L52.9,136.1z"/>
	<path fill-rule="evenodd" clip-rule="evenodd" fill="#DADADA" d="M56.6,148.3c3.2,0,5.8,2.5,5.8,5.6c0,3.1-2.6,5.6-5.8,5.6
		c-3.2,0-5.8-2.5-5.8-5.6C50.8,150.8,53.4,148.3,56.6,148.3L56.6,148.3z"/>
	<path fill-rule="evenodd" clip-rule="evenodd" fill="#DADADA" d="M45.3,155.9c3.2,0,5.8,2.5,5.8,5.6c0,3.1-2.6,5.6-5.8,5.6
		c-3.2,0-5.8-2.5-5.8-5.6C39.5,158.4,42.1,155.9,45.3,155.9L45.3,155.9z"/>
	<path fill-rule="evenodd" clip-rule="evenodd" fill="#DADADA" d="M50.5,168.1c3.2,0,5.8,2.5,5.8,5.6c0,3.1-2.6,5.6-5.8,5.6
		c-3.2,0-5.8-2.5-5.8-5.6C44.7,170.6,47.3,168.1,50.5,168.1L50.5,168.1z"/>
	<path fill-rule="evenodd" clip-rule="evenodd" fill="#DADADA" d="M40.1,177.6c3.2,0,5.8,2.5,5.8,5.6c0,3.1-2.6,5.6-5.8,5.6
		c-3.2,0-5.8-2.5-5.8-5.6C34.3,180.1,36.9,177.6,40.1,177.6L40.1,177.6z"/>
	<path fill-rule="evenodd" clip-rule="evenodd" fill="#DADADA" d="M46.8,189.2c3.2,0,5.8,2.5,5.8,5.6c0,3.1-2.6,5.6-5.8,5.6
		c-3.2,0-5.8-2.5-5.8-5.6C41,191.7,43.6,189.2,46.8,189.2L46.8,189.2z"/>
	<path fill-rule="evenodd" clip-rule="evenodd" fill="#DADADA" d="M129.2,54.2c3.2,0,5.8,2.5,5.8,5.6c0,3.1-2.6,5.6-5.8,5.6
		c-3.2,0-5.8-2.5-5.8-5.6C123.4,56.8,126,54.2,129.2,54.2L129.2,54.2z"/>
	<path fill-rule="evenodd" clip-rule="evenodd" fill="#DADADA" d="M123.7,66.8c3.2,0,5.8,2.5,5.8,5.6c0,3.1-2.6,5.6-5.8,5.6
		c-3.2,0-5.8-2.5-5.8-5.6C117.9,69.3,120.5,66.8,123.7,66.8L123.7,66.8z"/>
	<path fill-rule="evenodd" clip-rule="evenodd" fill="#DADADA" d="M110,66.5c3.2,0,5.8,2.5,5.8,5.6c0,3.1-2.6,5.6-5.8,5.6
		c-3.2,0-5.8-2.5-5.8-5.6C104.2,69,106.8,66.5,110,66.5L110,66.5z"/>
	<path fill-rule="evenodd" clip-rule="evenodd" fill="#DADADA" d="M106.3,79.3c3.2,0,5.8,2.5,5.8,5.6c0,3.1-2.6,5.6-5.8,5.6
		c-3.2,0-5.8-2.5-5.8-5.6C100.5,81.8,103.1,79.3,106.3,79.3L106.3,79.3z"/>
	<path fill-rule="evenodd" clip-rule="evenodd" fill="#DADADA" d="M92.3,80.8c3.2,0,5.8,2.5,5.8,5.6c0,3.1-2.6,5.6-5.8,5.6
		c-3.2,0-5.8-2.5-5.8-5.6C86.5,83.3,89.1,80.8,92.3,80.8L92.3,80.8z"/>
	<path fill-rule="evenodd" clip-rule="evenodd" fill="#DADADA" d="M90.8,94.2c3.2,0,5.8,2.5,5.8,5.6c0,3.1-2.6,5.6-5.8,5.6
		c-3.2,0-5.8-2.5-5.8-5.6C85,96.7,87.6,94.2,90.8,94.2L90.8,94.2z"/>
	<path fill-rule="evenodd" clip-rule="evenodd" fill="#DADADA" d="M76.6,97.9c3.2,0,5.8,2.5,5.8,5.6c0,3.1-2.6,5.6-5.8,5.6
		c-3.2,0-5.8-2.5-5.8-5.6C70.8,100.4,73.4,97.9,76.6,97.9L76.6,97.9z"/>
	<path fill-rule="evenodd" clip-rule="evenodd" fill="#DADADA" d="M77,111c3.2,0,5.8,2.5,5.8,5.6c0,3.1-2.6,5.6-5.8,5.6
		c-3.2,0-5.8-2.5-5.8-5.6C71.2,113.5,73.8,111,77,111L77,111z"/>
	<path fill-rule="evenodd" clip-rule="evenodd" fill="#DADADA" d="M215.6,32.3c3.2,0,5.8,2.5,5.8,5.6c0,3.1-2.6,5.6-5.8,5.6
		c-3.2,0-5.8-2.5-5.8-5.6C209.8,34.8,212.4,32.3,215.6,32.3L215.6,32.3z"/>
	<path fill-rule="evenodd" clip-rule="evenodd" fill="#DADADA" d="M205.9,41.1c3.2,0,5.8,2.5,5.8,5.6c0,3.1-2.6,5.6-5.8,5.6
		c-3.2,0-5.8-2.5-5.8-5.6C200.1,43.6,202.7,41.1,205.9,41.1L205.9,41.1z"/>
	<path fill-rule="evenodd" clip-rule="evenodd" fill="#DADADA" d="M193.6,33.2c3.2,0,5.8,2.5,5.8,5.6c0,3.1-2.6,5.6-5.8,5.6
		c-3.2,0-5.8-2.5-5.8-5.6C187.8,35.7,190.4,33.2,193.6,33.2L193.6,33.2z"/>
	<path fill-rule="evenodd" clip-rule="evenodd" fill="#DADADA" d="M184.5,43.9c3.2,0,5.8,2.5,5.8,5.6c0,3.1-2.6,5.6-5.8,5.6
		c-3.2,0-5.8-2.5-5.8-5.6C178.7,46.4,181.3,43.9,184.5,43.9L184.5,43.9z"/>
	<path fill-rule="evenodd" clip-rule="evenodd" fill="#DADADA" d="M171.1,37.5c3.2,0,5.8,2.5,5.8,5.6c0,3.1-2.6,5.6-5.8,5.6
		c-3.2,0-5.8-2.5-5.8-5.6C165.2,40,167.9,37.5,171.1,37.5L171.1,37.5z"/>
	<path fill-rule="evenodd" clip-rule="evenodd" fill="#DADADA" d="M163.1,49.1c3.2,0,5.8,2.5,5.8,5.6c0,3.1-2.6,5.6-5.8,5.6
		c-3.2,0-5.8-2.5-5.8-5.6C157.3,51.6,159.9,49.1,163.1,49.1L163.1,49.1z"/>
	<path fill-rule="evenodd" clip-rule="evenodd" fill="#DADADA" d="M149.1,44.8c3.2,0,5.8,2.5,5.8,5.6c0,3.1-2.6,5.6-5.8,5.6
		c-3.2,0-5.8-2.5-5.8-5.6C143.3,47.3,145.9,44.8,149.1,44.8L149.1,44.8z"/>
	<path fill-rule="evenodd" clip-rule="evenodd" fill="#DADADA" d="M142.4,56.4c3.2,0,5.8,2.5,5.8,5.6c0,3.1-2.6,5.6-5.8,5.6
		c-3.2,0-5.8-2.5-5.8-5.6C136.6,58.9,139.2,56.4,142.4,56.4L142.4,56.4z"/>
	<path fill-rule="evenodd" clip-rule="evenodd" fill="#DADADA" d="M276.6,35.7c2.1,0,3.9,1.7,3.9,3.7c0,2.1-1.7,3.7-3.9,3.7
		c-2.1,0-3.9-1.7-3.9-3.7C272.7,37.4,274.4,35.7,276.6,35.7L276.6,35.7z"/>
	<path fill-rule="evenodd" clip-rule="evenodd" fill="#DADADA" d="M300,46c2.1,0,3.9,1.7,3.9,3.7c0,2.1-1.7,3.7-3.9,3.7
		c-2.1,0-3.9-1.7-3.9-3.7C296.1,47.7,297.9,46,300,46L300,46z"/>
	<path fill-rule="evenodd" clip-rule="evenodd" fill="#DADADA" d="M371.8,112.4c2.1,0,3.9,1.7,3.9,3.8c0,2.1-1.7,3.7-3.9,3.7
		c-2.1,0-3.9-1.7-3.9-3.7C367.9,114.1,369.7,112.4,371.8,112.4L371.8,112.4z"/>
	<path fill-rule="evenodd" clip-rule="evenodd" fill="#DADADA" d="M251.5,28.6c2.1,0,3.9,1.7,3.9,3.7s-1.7,3.7-3.9,3.7
		c-2.1,0-3.9-1.7-3.9-3.7S249.3,28.6,251.5,28.6L251.5,28.6z"/>
	<path fill-rule="evenodd" clip-rule="evenodd" fill="#DADADA" d="M227.4,25.3c2.1,0,3.9,1.7,3.9,3.7c0,2.1-1.7,3.7-3.9,3.7
		c-2.1,0-3.9-1.7-3.9-3.7C223.5,26.9,225.2,25.3,227.4,25.3L227.4,25.3z"/>
	<path fill-rule="evenodd" clip-rule="evenodd" fill="#DADADA" d="M357.4,93.1c2.1,0,3.9,1.7,3.9,3.8c0,2.1-1.7,3.7-3.9,3.7
		s-3.9-1.7-3.9-3.7C353.5,94.8,355.2,93.1,357.4,93.1L357.4,93.1z"/>
	<path fill-rule="evenodd" clip-rule="evenodd" fill="#DADADA" d="M321.4,59.1c2.1,0,3.9,1.7,3.9,3.7c0,2.1-1.7,3.7-3.9,3.7
		c-2.2,0-3.9-1.7-3.9-3.7C317.5,60.8,319.2,59.1,321.4,59.1L321.4,59.1z"/>
	<path fill-rule="evenodd" clip-rule="evenodd" fill="#DADADA" d="M341.2,75.4c2.1,0,3.9,1.7,3.9,3.7c0,2.1-1.7,3.7-3.9,3.7
		c-2.1,0-3.9-1.7-3.9-3.7C337.3,77.1,339.1,75.4,341.2,75.4L341.2,75.4z"/>
	<path fill-rule="evenodd" clip-rule="evenodd" fill="#DADADA" d="M391.3,156.5c2.1,0,3.9,1.7,3.9,3.7c0,2.1-1.7,3.7-3.9,3.7
		c-2.2,0-3.9-1.7-3.9-3.7C387.4,158.2,389.2,156.5,391.3,156.5L391.3,156.5z"/>
	<path fill-rule="evenodd" clip-rule="evenodd" fill="#DADADA" d="M382.7,133.6c2.1,0,3.9,1.7,3.9,3.8c0,2.1-1.7,3.7-3.9,3.7
		c-2.1,0-3.9-1.7-3.9-3.7C378.8,135.2,380.6,133.6,382.7,133.6L382.7,133.6z"/>
	<path fill-rule="evenodd" clip-rule="evenodd" fill="#DADADA" d="M378.2,297.3c2.1,0,3.9,1.7,3.9,3.8c0,2.1-1.7,3.7-3.9,3.7
		c-2.2,0-3.9-1.7-3.9-3.7C374.3,299,376,297.3,378.2,297.3L378.2,297.3z"/>
	<path fill-rule="evenodd" clip-rule="evenodd" fill="#DADADA" d="M396.8,179.3c2.1,0,3.9,1.7,3.9,3.7c0,2.1-1.7,3.7-3.9,3.7
		c-2.1,0-3.9-1.7-3.9-3.7C392.9,181,394.6,179.3,396.8,179.3L396.8,179.3z"/>
	<path fill-rule="evenodd" clip-rule="evenodd" fill="#DADADA" d="M399.1,204.1c2.2,0,3.9,1.7,3.9,3.8c0,2.1-1.7,3.7-3.9,3.7
		c-2.1,0-3.9-1.7-3.9-3.7C395.2,205.7,396.9,204.1,399.1,204.1L399.1,204.1z"/>
	<path fill-rule="evenodd" clip-rule="evenodd" fill="#DADADA" d="M387.9,275.3c2.2,0,3.9,1.7,3.9,3.7c0,2.1-1.7,3.8-3.9,3.8
		c-2.2,0-3.9-1.7-3.9-3.8C384,277,385.7,275.3,387.9,275.3L387.9,275.3z"/>
	<path fill-rule="evenodd" clip-rule="evenodd" fill="#DADADA" d="M398.5,227.3c2.1,0,3.9,1.7,3.9,3.7c0,2.1-1.7,3.7-3.9,3.7
		c-2.1,0-3.9-1.7-3.9-3.7C394.6,229,396.4,227.3,398.5,227.3L398.5,227.3z"/>
	<path fill-rule="evenodd" clip-rule="evenodd" fill="#DADADA" d="M394.9,251.2c2.1,0,3.9,1.7,3.9,3.7c0,2.1-1.7,3.8-3.9,3.8
		c-2.1,0-3.9-1.7-3.9-3.8C391,252.9,392.8,251.2,394.9,251.2L394.9,251.2z"/>
	<path fill-rule="evenodd" clip-rule="evenodd" fill="#DADADA" d="M218.2,395.5c2.1,0,3.9,1.7,3.9,3.7c0,2.1-1.7,3.7-3.9,3.7
		c-2.1,0-3.9-1.7-3.9-3.7C214.3,397.2,216.1,395.5,218.2,395.5L218.2,395.5z"/>
	<path fill-rule="evenodd" clip-rule="evenodd" fill="#DADADA" d="M243.5,393c2.1,0,3.9,1.7,3.9,3.7c0,2.1-1.7,3.8-3.9,3.8
		c-2.1,0-3.9-1.7-3.9-3.8C239.6,394.7,241.4,393,243.5,393L243.5,393z"/>
	<path fill-rule="evenodd" clip-rule="evenodd" fill="#DADADA" d="M365.1,317.8c2.1,0,3.9,1.7,3.9,3.8c0,2.1-1.7,3.7-3.9,3.7
		c-2.1,0-3.9-1.7-3.9-3.7C361.2,319.5,362.9,317.8,365.1,317.8L365.1,317.8z"/>
	<path fill-rule="evenodd" clip-rule="evenodd" fill="#DADADA" d="M267.7,387.5c2.1,0,3.9,1.7,3.9,3.7c0,2.1-1.7,3.8-3.9,3.8
		c-2.1,0-3.9-1.7-3.9-3.8C263.8,389.2,265.5,387.5,267.7,387.5L267.7,387.5z"/>
	<path fill-rule="evenodd" clip-rule="evenodd" fill="#DADADA" d="M291.3,378.4c2.1,0,3.9,1.7,3.9,3.7c0,2.1-1.7,3.7-3.9,3.7
		c-2.1,0-3.9-1.7-3.9-3.7C287.4,380.1,289.2,378.4,291.3,378.4L291.3,378.4z"/>
	<path fill-rule="evenodd" clip-rule="evenodd" fill="#DADADA" d="M349.4,336.7c2.1,0,3.9,1.7,3.9,3.7c0,2.1-1.7,3.8-3.9,3.8
		c-2.1,0-3.9-1.7-3.9-3.8C345.5,338.3,347.3,336.7,349.4,336.7L349.4,336.7z"/>
	<path fill-rule="evenodd" clip-rule="evenodd" fill="#DADADA" d="M312.7,366.8c2.1,0,3.9,1.7,3.9,3.8c0,2.1-1.7,3.7-3.9,3.7
		c-2.1,0-3.9-1.7-3.9-3.7C308.9,368.5,310.6,366.8,312.7,366.8L312.7,366.8z"/>
	<path fill-rule="evenodd" clip-rule="evenodd" fill="#DADADA" d="M332.3,352.8c2.2,0,3.9,1.7,3.9,3.7c0,2.1-1.7,3.8-3.9,3.8
		c-2.1,0-3.9-1.7-3.9-3.8C328.4,354.5,330.2,352.8,332.3,352.8L332.3,352.8z"/>
	<path fill-rule="evenodd" clip-rule="evenodd" fill="#DADADA" d="M67.4,324.7c2.1,0,3.9,1.7,3.9,3.8c0,2.1-1.7,3.8-3.9,3.8
		c-2.1,0-3.9-1.7-3.9-3.8C63.5,326.4,65.3,324.7,67.4,324.7L67.4,324.7z"/>
	<path fill-rule="evenodd" clip-rule="evenodd" fill="#DADADA" d="M53.3,304.2c2.1,0,3.9,1.7,3.9,3.8c0,2.1-1.7,3.7-3.9,3.7
		c-2.1,0-3.9-1.7-3.9-3.7C49.5,305.9,51.2,304.2,53.3,304.2L53.3,304.2z"/>
	<path fill-rule="evenodd" clip-rule="evenodd" fill="#DADADA" d="M192.6,394.4c2.1,0,3.9,1.7,3.9,3.8c0,2.1-1.7,3.7-3.9,3.7
		c-2.1,0-3.9-1.7-3.9-3.7C188.7,396.1,190.5,394.4,192.6,394.4L192.6,394.4z"/>
	<path fill-rule="evenodd" clip-rule="evenodd" fill="#DADADA" d="M83,342c2.1,0,3.9,1.7,3.9,3.7c0,2.1-1.7,3.8-3.9,3.8
		c-2.1,0-3.9-1.7-3.9-3.8C79.1,343.7,80.8,342,83,342L83,342z"/>
	<path fill-rule="evenodd" clip-rule="evenodd" fill="#DADADA" d="M102,358.5c2.1,0,3.9,1.7,3.9,3.8c0,2.1-1.7,3.7-3.9,3.7
		c-2.1,0-3.9-1.7-3.9-3.7C98.2,360.2,99.9,358.5,102,358.5L102,358.5z"/>
	<path fill-rule="evenodd" clip-rule="evenodd" fill="#DADADA" d="M167.8,389.8c2.1,0,3.9,1.7,3.9,3.8c0,2.1-1.7,3.7-3.9,3.7
		c-2.2,0-3.9-1.7-3.9-3.7C163.9,391.5,165.6,389.8,167.8,389.8L167.8,389.8z"/>
	<path fill-rule="evenodd" clip-rule="evenodd" fill="#DADADA" d="M122.6,372c2.1,0,3.9,1.7,3.9,3.7c0,2.1-1.7,3.8-3.9,3.8
		c-2.1,0-3.9-1.7-3.9-3.8C118.7,373.6,120.4,372,122.6,372L122.6,372z"/>
	<path fill-rule="evenodd" clip-rule="evenodd" fill="#DADADA" d="M144.6,382.1c2.1,0,3.9,1.7,3.9,3.7c0,2.1-1.7,3.8-3.9,3.8
		c-2.1,0-3.9-1.7-3.9-3.8C140.7,383.8,142.5,382.1,144.6,382.1L144.6,382.1z"/>
	<path fill-rule="evenodd" clip-rule="evenodd" fill="#DADADA" d="M40.3,144c2.1,0,3.9,1.7,3.9,3.7c0,2.1-1.7,3.7-3.9,3.7
		c-2.1,0-3.9-1.7-3.9-3.7C36.4,145.7,38.1,144,40.3,144L40.3,144z"/>
	<path fill-rule="evenodd" clip-rule="evenodd" fill="#DADADA" d="M49.4,123.5c2.1,0,3.9,1.7,3.9,3.7c0,2.1-1.7,3.7-3.9,3.7
		c-2.1,0-3.9-1.7-3.9-3.7C45.5,125.2,47.2,123.5,49.4,123.5L49.4,123.5z"/>
	<path fill-rule="evenodd" clip-rule="evenodd" fill="#DADADA" d="M43,283.6c2.1,0,3.9,1.7,3.9,3.7c0,2.1-1.7,3.8-3.9,3.8
		c-2.1,0-3.9-1.7-3.9-3.8C39.1,285.3,40.9,283.6,43,283.6L43,283.6z"/>
	<path fill-rule="evenodd" clip-rule="evenodd" fill="#DADADA" d="M33.2,165.9c2.1,0,3.9,1.7,3.9,3.7c0,2.1-1.7,3.7-3.9,3.7
		c-2.1,0-3.9-1.7-3.9-3.7C29.3,167.6,31.1,165.9,33.2,165.9L33.2,165.9z"/>
	<path fill-rule="evenodd" clip-rule="evenodd" fill="#DADADA" d="M28.8,188.5c2.1,0,3.9,1.7,3.9,3.7c0,2.1-1.7,3.7-3.9,3.7
		c-2.1,0-3.9-1.7-3.9-3.7C24.9,190.2,26.6,188.5,28.8,188.5L28.8,188.5z"/>
	<path fill-rule="evenodd" clip-rule="evenodd" fill="#DADADA" d="M34.7,260.3c2.1,0,3.9,1.7,3.9,3.8c0,2.1-1.7,3.7-3.9,3.7
		c-2.1,0-3.9-1.7-3.9-3.7C30.8,262,32.6,260.3,34.7,260.3L34.7,260.3z"/>
	<path fill-rule="evenodd" clip-rule="evenodd" fill="#DADADA" d="M27.6,212.6c2.1,0,3.9,1.7,3.9,3.7c0,2.1-1.7,3.8-3.9,3.8
		c-2.1,0-3.9-1.7-3.9-3.8C23.7,214.3,25.5,212.6,27.6,212.6L27.6,212.6z"/>
	<path fill-rule="evenodd" clip-rule="evenodd" fill="#DADADA" d="M29.5,235.3c2.1,0,3.9,1.7,3.9,3.7c0,2.1-1.7,3.7-3.9,3.7
		c-2.1,0-3.9-1.7-3.9-3.7C25.6,237,27.4,235.3,29.5,235.3L29.5,235.3z"/>
	<path fill-rule="evenodd" clip-rule="evenodd" fill="#DADADA" d="M179.2,28c2.1,0,3.9,1.7,3.9,3.7c0,2.1-1.7,3.7-3.9,3.7
		c-2.1,0-3.9-1.7-3.9-3.7C175.3,29.7,177,28,179.2,28L179.2,28z"/>
	<path fill-rule="evenodd" clip-rule="evenodd" fill="#DADADA" d="M204.1,24.9c2.1,0,3.9,1.7,3.9,3.8c0,2.1-1.7,3.7-3.9,3.7
		c-2.2,0-3.9-1.7-3.9-3.7C200.3,26.6,202,24.9,204.1,24.9L204.1,24.9z"/>
	<path fill-rule="evenodd" clip-rule="evenodd" fill="#DADADA" d="M61.3,103.8c2.1,0,3.9,1.7,3.9,3.8c0,2.1-1.7,3.8-3.9,3.8
		c-2.1,0-3.9-1.7-3.9-3.8C57.4,105.5,59.2,103.8,61.3,103.8L61.3,103.8z"/>
	<path fill-rule="evenodd" clip-rule="evenodd" fill="#DADADA" d="M155.9,34c2.1,0,3.9,1.7,3.9,3.7c0,2.1-1.7,3.8-3.9,3.8
		c-2.1,0-3.9-1.7-3.9-3.8C152,35.7,153.8,34,155.9,34L155.9,34z"/>
	<path fill-rule="evenodd" clip-rule="evenodd" fill="#DADADA" d="M133.5,42.9c2.1,0,3.9,1.7,3.9,3.7c0,2.1-1.7,3.7-3.9,3.7
		c-2.1,0-3.9-1.7-3.9-3.7C129.6,44.6,131.3,42.9,133.5,42.9L133.5,42.9z"/>
	<path fill-rule="evenodd" clip-rule="evenodd" fill="#DADADA" d="M76.8,84.5c2.1,0,3.9,1.7,3.9,3.7c0,2.1-1.7,3.8-3.9,3.8
		c-2.1,0-3.9-1.7-3.9-3.8C72.9,86.2,74.7,84.5,76.8,84.5L76.8,84.5z"/>
	<path fill-rule="evenodd" clip-rule="evenodd" fill="#DADADA" d="M113.1,54.2c2.1,0,3.9,1.7,3.9,3.7c0,2.1-1.7,3.8-3.9,3.8
		c-2.1,0-3.9-1.7-3.9-3.8C109.2,55.9,110.9,54.2,113.1,54.2L113.1,54.2z"/>
	<path fill-rule="evenodd" clip-rule="evenodd" fill="#DADADA" d="M93.9,68c2.2,0,3.9,1.7,3.9,3.7c0,2.1-1.7,3.7-3.9,3.7
		c-2.1,0-3.9-1.7-3.9-3.7C90,69.7,91.8,68,93.9,68L93.9,68z"/>
	<path fill-rule="evenodd" clip-rule="evenodd" fill="#DADADA" d="M292.2,34.5c1.9,0,3.4,1.5,3.4,3.3c0,1.8-1.5,3.3-3.4,3.3
		c-1.9,0-3.4-1.5-3.4-3.3C288.7,36,290.3,34.5,292.2,34.5L292.2,34.5z"/>
	<path fill-rule="evenodd" clip-rule="evenodd" fill="#DADADA" d="M265.6,25.2c1.9,0,3.4,1.5,3.4,3.3c0,1.8-1.5,3.3-3.4,3.3
		c-1.9,0-3.4-1.5-3.4-3.3C262.2,26.7,263.7,25.2,265.6,25.2L265.6,25.2z"/>
	<path fill-rule="evenodd" clip-rule="evenodd" fill="#DADADA" d="M394.5,143.1c1.9,0,3.4,1.5,3.4,3.3c0,1.8-1.5,3.3-3.4,3.3
		c-1.9,0-3.4-1.5-3.4-3.3C391.1,144.5,392.7,143.1,394.5,143.1L394.5,143.1z"/>
	<path fill-rule="evenodd" clip-rule="evenodd" fill="#DADADA" d="M315.9,47.2c1.9,0,3.4,1.5,3.4,3.3c0,1.8-1.5,3.3-3.4,3.3
		c-1.9,0-3.4-1.5-3.4-3.3C312.5,48.7,314,47.2,315.9,47.2L315.9,47.2z"/>
	<path fill-rule="evenodd" clip-rule="evenodd" fill="#DADADA" d="M336.1,61.9c1.9,0,3.4,1.5,3.4,3.3c0,1.8-1.5,3.3-3.4,3.3
		c-1.9,0-3.4-1.5-3.4-3.3C332.7,63.4,334.2,61.9,336.1,61.9L336.1,61.9z"/>
	<path fill-rule="evenodd" clip-rule="evenodd" fill="#DADADA" d="M384.1,119.8c1.9,0,3.4,1.5,3.4,3.3c0,1.8-1.5,3.3-3.4,3.3
		c-1.9,0-3.4-1.5-3.4-3.3C380.7,121.2,382.2,119.8,384.1,119.8L384.1,119.8z"/>
	<path fill-rule="evenodd" clip-rule="evenodd" fill="#DADADA" d="M355.6,80.6c1.9,0,3.4,1.5,3.4,3.3c0,1.8-1.5,3.3-3.4,3.3
		s-3.4-1.5-3.4-3.3C352.2,82,353.7,80.6,355.6,80.6L355.6,80.6z"/>
	<path fill-rule="evenodd" clip-rule="evenodd" fill="#DADADA" d="M370.6,98.6c1.9,0,3.4,1.5,3.4,3.3c0,1.8-1.5,3.3-3.4,3.3
		c-1.9,0-3.4-1.5-3.4-3.3C367.2,100.1,368.7,98.6,370.6,98.6L370.6,98.6z"/>
	<path fill-rule="evenodd" clip-rule="evenodd" fill="#DADADA" d="M405.6,191.1c1.9,0,3.4,1.5,3.4,3.3c0,1.8-1.5,3.3-3.4,3.3
		c-1.9,0-3.4-1.5-3.4-3.3C402.1,192.6,403.7,191.1,405.6,191.1L405.6,191.1z"/>
	<path fill-rule="evenodd" clip-rule="evenodd" fill="#DADADA" d="M401.3,166c1.9,0,3.4,1.5,3.4,3.3c0,1.8-1.5,3.3-3.4,3.3
		c-1.9,0-3.4-1.5-3.4-3.3C397.9,167.4,399.4,166,401.3,166L401.3,166z"/>
	<path fill-rule="evenodd" clip-rule="evenodd" fill="#DADADA" d="M363,332.4c1.9,0,3.4,1.5,3.4,3.3c0,1.8-1.5,3.3-3.4,3.3
		c-1.9,0-3.4-1.5-3.4-3.3C359.5,333.9,361.1,332.4,363,332.4L363,332.4z"/>
	<path fill-rule="evenodd" clip-rule="evenodd" fill="#DADADA" d="M406.4,216.4c1.9,0,3.4,1.5,3.4,3.3c0,1.8-1.5,3.3-3.4,3.3
		c-1.9,0-3.4-1.5-3.4-3.3C403,217.9,404.5,216.4,406.4,216.4L406.4,216.4z"/>
	<path fill-rule="evenodd" clip-rule="evenodd" fill="#DADADA" d="M404,241.2c1.9,0,3.4,1.5,3.4,3.3c0,1.8-1.5,3.3-3.4,3.3
		c-1.9,0-3.4-1.5-3.4-3.3C400.6,242.6,402.1,241.2,404,241.2L404,241.2z"/>
	<path fill-rule="evenodd" clip-rule="evenodd" fill="#DADADA" d="M378.1,311.2c1.9,0,3.4,1.5,3.4,3.3c0,1.8-1.5,3.3-3.4,3.3
		c-1.9,0-3.4-1.5-3.4-3.3C374.7,312.7,376.2,311.2,378.1,311.2L378.1,311.2z"/>
	<path fill-rule="evenodd" clip-rule="evenodd" fill="#DADADA" d="M398.2,266.2c1.9,0,3.4,1.5,3.4,3.3c0,1.8-1.5,3.3-3.4,3.3
		c-1.9,0-3.4-1.5-3.4-3.3C394.8,267.7,396.3,266.2,398.2,266.2L398.2,266.2z"/>
	<path fill-rule="evenodd" clip-rule="evenodd" fill="#DADADA" d="M389.4,289.8c1.9,0,3.4,1.5,3.4,3.3c0,1.8-1.5,3.3-3.4,3.3
		c-1.9,0-3.4-1.5-3.4-3.3C386,291.3,387.5,289.8,389.4,289.8L389.4,289.8z"/>
	<path fill-rule="evenodd" clip-rule="evenodd" fill="#DADADA" d="M205,402.7c1.9,0,3.4,1.5,3.4,3.3c0,1.8-1.5,3.3-3.4,3.3
		c-1.9,0-3.4-1.5-3.4-3.3C201.6,404.2,203.1,402.7,205,402.7L205,402.7z"/>
	<path fill-rule="evenodd" clip-rule="evenodd" fill="#DADADA" d="M178.8,400.1c1.9,0,3.4,1.5,3.4,3.3c0,1.8-1.5,3.3-3.4,3.3
		c-1.9,0-3.4-1.5-3.4-3.3C175.4,401.6,176.9,400.1,178.8,400.1L178.8,400.1z"/>
	<path fill-rule="evenodd" clip-rule="evenodd" fill="#DADADA" d="M346.5,350.1c1.9,0,3.4,1.5,3.4,3.3c0,1.8-1.5,3.3-3.4,3.3
		c-1.9,0-3.4-1.5-3.4-3.3C343.1,351.6,344.6,350.1,346.5,350.1L346.5,350.1z"/>
	<path fill-rule="evenodd" clip-rule="evenodd" fill="#DADADA" d="M231.8,402c1.9,0,3.4,1.5,3.4,3.3c0,1.8-1.5,3.3-3.4,3.3
		c-1.9,0-3.4-1.5-3.4-3.3C228.4,403.5,229.9,402,231.8,402L231.8,402z"/>
	<path fill-rule="evenodd" clip-rule="evenodd" fill="#DADADA" d="M257.8,398.1c1.9,0,3.4,1.5,3.4,3.3c0,1.8-1.5,3.3-3.4,3.3
		c-1.9,0-3.4-1.5-3.4-3.3C254.4,399.5,255.9,398.1,257.8,398.1L257.8,398.1z"/>
	<path fill-rule="evenodd" clip-rule="evenodd" fill="#DADADA" d="M327.5,365.8c1.9,0,3.4,1.5,3.4,3.3c0,1.8-1.5,3.3-3.4,3.3
		c-1.9,0-3.4-1.5-3.4-3.3C324,367.3,325.6,365.8,327.5,365.8L327.5,365.8z"/>
	<path fill-rule="evenodd" clip-rule="evenodd" fill="#DADADA" d="M282.2,390.4c1.9,0,3.4,1.5,3.4,3.3c0,1.8-1.5,3.3-3.4,3.3
		c-1.9,0-3.4-1.5-3.4-3.3C278.8,391.9,280.3,390.4,282.2,390.4L282.2,390.4z"/>
	<path fill-rule="evenodd" clip-rule="evenodd" fill="#DADADA" d="M305.8,379.5c1.9,0,3.4,1.5,3.4,3.3c0,1.8-1.5,3.3-3.4,3.3
		c-1.9,0-3.4-1.5-3.4-3.3C302.3,381,303.9,379.5,305.8,379.5L305.8,379.5z"/>
	<path fill-rule="evenodd" clip-rule="evenodd" fill="#DADADA" d="M41.4,297.4c1.9,0,3.4,1.5,3.4,3.3c0,1.8-1.5,3.3-3.4,3.3
		c-1.9,0-3.4-1.5-3.4-3.3C38,298.8,39.5,297.4,41.4,297.4L41.4,297.4z"/>
	<path fill-rule="evenodd" clip-rule="evenodd" fill="#DADADA" d="M31.7,275.2c1.9,0,3.4,1.5,3.4,3.3c0,1.8-1.5,3.3-3.4,3.3
		c-1.9,0-3.4-1.5-3.4-3.3C28.2,276.7,29.8,275.2,31.7,275.2L31.7,275.2z"/>
	<path fill-rule="evenodd" clip-rule="evenodd" fill="#DADADA" d="M153.2,393.1c1.9,0,3.4,1.5,3.4,3.3c0,1.8-1.5,3.3-3.4,3.3
		c-1.9,0-3.4-1.5-3.4-3.3C149.8,394.6,151.3,393.1,153.2,393.1L153.2,393.1z"/>
	<path fill-rule="evenodd" clip-rule="evenodd" fill="#DADADA" d="M53.8,318.7c1.9,0,3.4,1.5,3.4,3.3c0,1.8-1.5,3.3-3.4,3.3
		c-1.9,0-3.4-1.5-3.4-3.3C50.4,320.2,51.9,318.7,53.8,318.7L53.8,318.7z"/>
	<path fill-rule="evenodd" clip-rule="evenodd" fill="#DADADA" d="M68.8,338.2c1.9,0,3.4,1.5,3.4,3.3c0,1.8-1.5,3.3-3.4,3.3
		c-1.9,0-3.4-1.5-3.4-3.3C65.4,339.7,66.9,338.2,68.8,338.2L68.8,338.2z"/>
	<path fill-rule="evenodd" clip-rule="evenodd" fill="#DADADA" d="M129.9,384.2c1.9,0,3.4,1.5,3.4,3.3s-1.5,3.3-3.4,3.3
		c-1.9,0-3.4-1.5-3.4-3.3S128.1,384.2,129.9,384.2L129.9,384.2z"/>
	<path fill-rule="evenodd" clip-rule="evenodd" fill="#DADADA" d="M87.7,356.6c1.9,0,3.4,1.5,3.4,3.3c0,1.8-1.5,3.3-3.4,3.3
		c-1.9,0-3.4-1.5-3.4-3.3C84.3,358,85.9,356.6,87.7,356.6L87.7,356.6z"/>
	<path fill-rule="evenodd" clip-rule="evenodd" fill="#DADADA" d="M107.9,371.6c1.9,0,3.4,1.5,3.4,3.3s-1.5,3.3-3.4,3.3
		c-1.9,0-3.4-1.5-3.4-3.3S106.1,371.6,107.9,371.6L107.9,371.6z"/>
	<path fill-rule="evenodd" clip-rule="evenodd" fill="#DADADA" d="M49.3,109.6c1.9,0,3.4,1.5,3.4,3.3c0,1.8-1.5,3.3-3.4,3.3
		c-1.9,0-3.4-1.5-3.4-3.3C45.9,111.1,47.4,109.6,49.3,109.6L49.3,109.6z"/>
	<path fill-rule="evenodd" clip-rule="evenodd" fill="#DADADA" d="M63.1,89.6c1.9,0,3.4,1.5,3.4,3.3c0,1.8-1.5,3.3-3.4,3.3
		c-1.9,0-3.4-1.5-3.4-3.3C59.7,91.1,61.2,89.6,63.1,89.6L63.1,89.6z"/>
	<path fill-rule="evenodd" clip-rule="evenodd" fill="#DADADA" d="M24.4,249.6c1.9,0,3.4,1.5,3.4,3.3c0,1.8-1.5,3.3-3.4,3.3
		c-1.9,0-3.4-1.5-3.4-3.3C21,251.1,22.5,249.6,24.4,249.6L24.4,249.6z"/>
	<path fill-rule="evenodd" clip-rule="evenodd" fill="#DADADA" d="M37.6,130.9c1.9,0,3.4,1.5,3.4,3.3c0,1.8-1.5,3.3-3.4,3.3
		c-1.9,0-3.4-1.5-3.4-3.3C34.2,132.4,35.7,130.9,37.6,130.9L37.6,130.9z"/>
	<path fill-rule="evenodd" clip-rule="evenodd" fill="#DADADA" d="M29.4,152.6c1.9,0,3.4,1.5,3.4,3.3c0,1.8-1.5,3.3-3.4,3.3
		c-1.9,0-3.4-1.5-3.4-3.3C26,154.1,27.6,152.6,29.4,152.6L29.4,152.6z"/>
	<path fill-rule="evenodd" clip-rule="evenodd" fill="#DADADA" d="M21,225.1c1.9,0,3.4,1.5,3.4,3.3c0,1.8-1.5,3.3-3.4,3.3
		c-1.9,0-3.4-1.5-3.4-3.3C17.5,226.6,19.1,225.1,21,225.1L21,225.1z"/>
	<path fill-rule="evenodd" clip-rule="evenodd" fill="#DADADA" d="M23.6,175.8c1.9,0,3.4,1.5,3.4,3.3c0,1.8-1.5,3.3-3.4,3.3
		c-1.9,0-3.4-1.5-3.4-3.3C20.2,177.3,21.8,175.8,23.6,175.8L23.6,175.8z"/>
	<path fill-rule="evenodd" clip-rule="evenodd" fill="#DADADA" d="M20.6,200.7c1.9,0,3.4,1.5,3.4,3.3c0,1.8-1.5,3.3-3.4,3.3
		c-1.9,0-3.4-1.5-3.4-3.3C17.2,202.1,18.7,200.7,20.6,200.7L20.6,200.7z"/>
	<path fill-rule="evenodd" clip-rule="evenodd" fill="#DADADA" d="M99.1,55.9c1.9,0,3.4,1.5,3.4,3.3c0,1.8-1.5,3.3-3.4,3.3
		c-1.9,0-3.4-1.5-3.4-3.3C95.7,57.4,97.2,55.9,99.1,55.9L99.1,55.9z"/>
	<path fill-rule="evenodd" clip-rule="evenodd" fill="#DADADA" d="M80.2,71.3c1.9,0,3.4,1.5,3.4,3.3c0,1.8-1.5,3.3-3.4,3.3
		c-1.9,0-3.4-1.5-3.4-3.3C76.8,72.8,78.3,71.3,80.2,71.3L80.2,71.3z"/>
	<path fill-rule="evenodd" clip-rule="evenodd" fill="#DADADA" d="M240.5,19.8c1.9,0,3.4,1.5,3.4,3.3c0,1.8-1.5,3.3-3.4,3.3
		c-1.9,0-3.4-1.5-3.4-3.3C237.1,21.3,238.7,19.8,240.5,19.8L240.5,19.8z"/>
	<path fill-rule="evenodd" clip-rule="evenodd" fill="#DADADA" d="M119.4,42.4c1.9,0,3.4,1.5,3.4,3.3c0,1.8-1.5,3.3-3.4,3.3
		c-1.9,0-3.4-1.5-3.4-3.3C116,43.9,117.6,42.4,119.4,42.4L119.4,42.4z"/>
	<path fill-rule="evenodd" clip-rule="evenodd" fill="#DADADA" d="M140.6,32.4c1.9,0,3.4,1.5,3.4,3.3c0,1.8-1.5,3.3-3.4,3.3
		c-1.9,0-3.4-1.5-3.4-3.3C137.2,33.8,138.7,32.4,140.6,32.4L140.6,32.4z"/>
	<path fill-rule="evenodd" clip-rule="evenodd" fill="#DADADA" d="M216,18.1c1.9,0,3.4,1.5,3.4,3.3c0,1.8-1.5,3.3-3.4,3.3
		c-1.9,0-3.4-1.5-3.4-3.3C212.6,19.6,214.1,18.1,216,18.1L216,18.1z"/>
	<path fill-rule="evenodd" clip-rule="evenodd" fill="#DADADA" d="M165.3,24.1c1.9,0,3.4,1.5,3.4,3.3c0,1.8-1.5,3.3-3.4,3.3
		c-1.9,0-3.4-1.5-3.4-3.3C161.9,25.6,163.4,24.1,165.3,24.1L165.3,24.1z"/>
	<path fill-rule="evenodd" clip-rule="evenodd" fill="#DADADA" d="M191,19.6c1.9,0,3.4,1.5,3.4,3.3c0,1.8-1.5,3.3-3.4,3.3
		c-1.9,0-3.4-1.5-3.4-3.3C187.6,21.1,189.1,19.6,191,19.6L191,19.6z"/>
	<path fill-rule="evenodd" clip-rule="evenodd" fill="#DADADA" d="M308.1,33.3c1.6,0,3,1.3,3,2.9c0,1.6-1.3,2.9-3,2.9
		c-1.7,0-3-1.3-3-2.9C305.1,34.5,306.4,33.3,308.1,33.3L308.1,33.3z"/>
	<path fill-rule="evenodd" clip-rule="evenodd" fill="#DADADA" d="M331.9,48c1.7,0,3,1.3,3,2.9c0,1.6-1.3,2.9-3,2.9
		c-1.7,0-3-1.3-3-2.9C328.9,49.3,330.3,48,331.9,48L331.9,48z"/>
	<path fill-rule="evenodd" clip-rule="evenodd" fill="#DADADA" d="M384.4,104.7c1.7,0,3,1.3,3,2.9c0,1.6-1.3,2.9-3,2.9
		c-1.7,0-3-1.3-3-2.9C381.4,106,382.8,104.7,384.4,104.7L384.4,104.7z"/>
	<path fill-rule="evenodd" clip-rule="evenodd" fill="#DADADA" d="M282.7,22.2c1.7,0,3,1.3,3,2.9c0,1.6-1.3,2.9-3,2.9
		c-1.7,0-3-1.3-3-2.9C279.8,23.5,281.1,22.2,282.7,22.2L282.7,22.2z"/>
	<path fill-rule="evenodd" clip-rule="evenodd" fill="#DADADA" d="M255,14.3c1.7,0,3,1.3,3,2.9c0,1.6-1.3,2.9-3,2.9
		c-1.6,0-3-1.3-3-2.9C252,15.6,253.4,14.3,255,14.3L255,14.3z"/>
	<path fill-rule="evenodd" clip-rule="evenodd" fill="#DADADA" d="M370.5,85c1.7,0,3,1.3,3,2.9c0,1.6-1.3,2.9-3,2.9
		c-1.7,0-3-1.3-3-2.9C367.5,86.3,368.8,85,370.5,85L370.5,85z"/>
	<path fill-rule="evenodd" clip-rule="evenodd" fill="#DADADA" d="M229.2,10.4c1.7,0,3,1.3,3,2.9c0,1.6-1.3,2.9-3,2.9
		c-1.7,0-3-1.3-3-2.9C226.2,11.7,227.5,10.4,229.2,10.4L229.2,10.4z"/>
	<path fill-rule="evenodd" clip-rule="evenodd" fill="#DADADA" d="M352,65.1c1.7,0,3,1.3,3,2.9c0,1.6-1.4,2.9-3,2.9
		c-1.7,0-3-1.3-3-2.9C349,66.4,350.4,65.1,352,65.1L352,65.1z"/>
	<path fill-rule="evenodd" clip-rule="evenodd" fill="#DADADA" d="M405.9,152.5c1.7,0,3,1.3,3,2.9c0,1.6-1.4,2.9-3,2.9
		c-1.7,0-3-1.3-3-2.9C402.9,153.8,404.2,152.5,405.9,152.5L405.9,152.5z"/>
	<path fill-rule="evenodd" clip-rule="evenodd" fill="#DADADA" d="M396.7,127.6c1.7,0,3,1.3,3,2.9c0,1.6-1.4,2.9-3,2.9
		c-1.7,0-3-1.3-3-2.9C393.6,128.9,395,127.6,396.7,127.6L396.7,127.6z"/>
	<path fill-rule="evenodd" clip-rule="evenodd" fill="#DADADA" d="M391.1,305.2c1.7,0,3,1.3,3,2.9c0,1.6-1.4,2.9-3,2.9
		c-1.7,0-3-1.3-3-2.9C388.1,306.5,389.4,305.2,391.1,305.2L391.1,305.2z"/>
	<path fill-rule="evenodd" clip-rule="evenodd" fill="#DADADA" d="M411.8,177.2c1.7,0,3,1.3,3,2.9c0,1.6-1.4,2.9-3,2.9
		c-1.7,0-3-1.3-3-2.9C408.7,178.6,410.1,177.2,411.8,177.2L411.8,177.2z"/>
	<path fill-rule="evenodd" clip-rule="evenodd" fill="#DADADA" d="M414.7,204.7c1.7,0,3,1.3,3,2.9c0,1.6-1.4,2.9-3,2.9
		c-1.7,0-3-1.3-3-2.9C411.6,206,413,204.7,414.7,204.7L414.7,204.7z"/>
	<path fill-rule="evenodd" clip-rule="evenodd" fill="#DADADA" d="M402.1,281.2c1.7,0,3,1.3,3,2.9c0,1.6-1.4,2.9-3,2.9
		c-1.7,0-3-1.3-3-2.9C399.1,282.5,400.4,281.2,402.1,281.2L402.1,281.2z"/>
	<path fill-rule="evenodd" clip-rule="evenodd" fill="#DADADA" d="M413.9,228.9c1.7,0,3,1.3,3,2.9c0,1.6-1.4,2.9-3,2.9
		c-1.7,0-3-1.3-3-2.9C410.9,230.2,412.2,228.9,413.9,228.9L413.9,228.9z"/>
	<path fill-rule="evenodd" clip-rule="evenodd" fill="#DADADA" d="M409.5,255.8c1.7,0,3,1.3,3,2.9c0,1.6-1.4,2.9-3,2.9
		c-1.7,0-3-1.3-3-2.9C406.5,257.1,407.8,255.8,409.5,255.8L409.5,255.8z"/>
	<path fill-rule="evenodd" clip-rule="evenodd" fill="#DADADA" d="M246.2,408.5c1.7,0,3,1.3,3,2.9c0,1.6-1.4,2.9-3,2.9
		c-1.7,0-3-1.3-3-2.9C243.2,409.8,244.6,408.5,246.2,408.5L246.2,408.5z"/>
	<path fill-rule="evenodd" clip-rule="evenodd" fill="#DADADA" d="M218.4,411.4c1.7,0,3,1.3,3,2.9c0,1.6-1.4,2.9-3,2.9
		c-1.7,0-3-1.3-3-2.9C215.4,412.7,216.7,411.4,218.4,411.4L218.4,411.4z"/>
	<path fill-rule="evenodd" clip-rule="evenodd" fill="#DADADA" d="M377.7,326.4c1.7,0,3,1.3,3,2.9c0,1.6-1.4,2.9-3,2.9
		c-1.7,0-3-1.3-3-2.9C374.6,327.7,376,326.4,377.7,326.4L377.7,326.4z"/>
	<path fill-rule="evenodd" clip-rule="evenodd" fill="#DADADA" d="M271.6,402.7c1.7,0,3,1.3,3,2.9c0,1.6-1.4,2.9-3,2.9
		c-1.7,0-3-1.3-3-2.9C268.6,404,270,402.7,271.6,402.7L271.6,402.7z"/>
	<path fill-rule="evenodd" clip-rule="evenodd" fill="#DADADA" d="M297.7,392.9c1.7,0,3,1.3,3,2.9c0,1.6-1.4,2.9-3,2.9
		c-1.7,0-3-1.3-3-2.9C294.7,394.3,296.1,392.9,297.7,392.9L297.7,392.9z"/>
	<path fill-rule="evenodd" clip-rule="evenodd" fill="#DADADA" d="M360.3,347.9c1.7,0,3,1.3,3,2.9c0,1.6-1.4,2.9-3,2.9
		c-1.7,0-3-1.3-3-2.9C357.3,349.2,358.6,347.9,360.3,347.9L360.3,347.9z"/>
	<path fill-rule="evenodd" clip-rule="evenodd" fill="#DADADA" d="M320.5,380.4c1.7,0,3,1.3,3,2.9c0,1.6-1.4,2.9-3,2.9
		c-1.7,0-3-1.3-3-2.9C317.4,381.8,318.8,380.4,320.5,380.4L320.5,380.4z"/>
	<path fill-rule="evenodd" clip-rule="evenodd" fill="#DADADA" d="M341.4,365.6c1.7,0,3,1.3,3,2.9c0,1.6-1.4,2.9-3,2.9
		c-1.7,0-3-1.3-3-2.9C338.4,366.9,339.8,365.6,341.4,365.6L341.4,365.6z"/>
	<path fill-rule="evenodd" clip-rule="evenodd" fill="#DADADA" d="M162.9,404.9c1.7,0,3,1.3,3,2.9c0,1.6-1.4,2.9-3,2.9
		c-1.7,0-3-1.3-3-2.9C159.9,406.2,161.2,404.9,162.9,404.9L162.9,404.9z"/>
	<path fill-rule="evenodd" clip-rule="evenodd" fill="#DADADA" d="M190.6,410.2c1.7,0,3,1.3,3,2.9c0,1.6-1.4,2.9-3,2.9
		c-1.7,0-3-1.3-3-2.9C187.6,411.5,189,410.2,190.6,410.2L190.6,410.2z"/>
	<path fill-rule="evenodd" clip-rule="evenodd" fill="#DADADA" d="M39.8,312.1c1.7,0,3,1.3,3,2.9c0,1.6-1.4,2.9-3,2.9
		c-1.7,0-3-1.3-3-2.9C36.7,313.4,38.1,312.1,39.8,312.1L39.8,312.1z"/>
	<path fill-rule="evenodd" clip-rule="evenodd" fill="#DADADA" d="M137.3,396.3c1.7,0,3,1.3,3,2.9c0,1.6-1.4,2.9-3,2.9
		c-1.7,0-3-1.3-3-2.9C134.3,397.6,135.7,396.3,137.3,396.3L137.3,396.3z"/>
	<path fill-rule="evenodd" clip-rule="evenodd" fill="#DADADA" d="M114,385c1.7,0,3,1.3,3,2.9c0,1.6-1.4,2.9-3,2.9
		c-1.7,0-3-1.3-3-2.9C110.9,386.3,112.3,385,114,385L114,385z"/>
	<path fill-rule="evenodd" clip-rule="evenodd" fill="#DADADA" d="M54.4,333.6c1.7,0,3,1.3,3,2.9c0,1.6-1.4,2.9-3,2.9
		c-1.7,0-3-1.3-3-2.9C51.4,334.9,52.7,333.6,54.4,333.6L54.4,333.6z"/>
	<path fill-rule="evenodd" clip-rule="evenodd" fill="#DADADA" d="M92.1,371c1.7,0,3,1.3,3,2.9c0,1.6-1.4,2.9-3,2.9
		c-1.7,0-3-1.3-3-2.9C89.1,372.3,90.5,371,92.1,371L92.1,371z"/>
	<path fill-rule="evenodd" clip-rule="evenodd" fill="#DADADA" d="M71.9,353.4c1.7,0,3,1.3,3,2.9c0,1.6-1.4,2.9-3,2.9
		c-1.7,0-3-1.3-3-2.9C68.9,354.7,70.2,353.4,71.9,353.4L71.9,353.4z"/>
	<path fill-rule="evenodd" clip-rule="evenodd" fill="#DADADA" d="M35.9,116.1c1.7,0,3,1.3,3,2.9c0,1.6-1.4,2.9-3,2.9
		c-1.7,0-3-1.3-3-2.9C32.9,117.4,34.2,116.1,35.9,116.1L35.9,116.1z"/>
	<path fill-rule="evenodd" clip-rule="evenodd" fill="#DADADA" d="M25.5,138.5c1.7,0,3,1.3,3,2.9c0,1.6-1.4,2.9-3,2.9
		c-1.7,0-3-1.3-3-2.9C22.4,139.8,23.8,138.5,25.5,138.5L25.5,138.5z"/>
	<path fill-rule="evenodd" clip-rule="evenodd" fill="#DADADA" d="M28.5,290.1c1.7,0,3,1.3,3,2.9c0,1.6-1.4,2.9-3,2.9
		c-1.7,0-3-1.3-3-2.9C25.4,291.4,26.8,290.1,28.5,290.1L28.5,290.1z"/>
	<path fill-rule="evenodd" clip-rule="evenodd" fill="#DADADA" d="M17.7,162.1c1.7,0,3,1.3,3,2.9c0,1.6-1.4,2.9-3,2.9
		c-1.7,0-3-1.3-3-2.9C14.6,163.5,16,162.1,17.7,162.1L17.7,162.1z"/>
	<path fill-rule="evenodd" clip-rule="evenodd" fill="#DADADA" d="M13.2,187.2c1.7,0,3,1.3,3,2.9c0,1.6-1.4,2.9-3,2.9
		c-1.7,0-3-1.3-3-2.9C10.2,188.5,11.6,187.2,13.2,187.2L13.2,187.2z"/>
	<path fill-rule="evenodd" clip-rule="evenodd" fill="#DADADA" d="M19.6,265.5c1.7,0,3,1.3,3,2.9c0,1.6-1.4,2.9-3,2.9
		c-1.7,0-3-1.3-3-2.9C16.6,266.8,17.9,265.5,19.6,265.5L19.6,265.5z"/>
	<path fill-rule="evenodd" clip-rule="evenodd" fill="#DADADA" d="M12.5,213.2c1.7,0,3,1.3,3,2.9c0,1.6-1.4,2.9-3,2.9
		c-1.7,0-3-1.3-3-2.9C9.4,214.5,10.8,213.2,12.5,213.2L12.5,213.2z"/>
	<path fill-rule="evenodd" clip-rule="evenodd" fill="#DADADA" d="M13.9,237.7c1.7,0,3,1.3,3,2.9c0,1.6-1.4,2.9-3,2.9
		c-1.7,0-3-1.3-3-2.9C10.9,239,12.2,237.7,13.9,237.7L13.9,237.7z"/>
	<path fill-rule="evenodd" clip-rule="evenodd" fill="#DADADA" d="M64.6,75.8c1.7,0,3,1.3,3,2.9c0,1.6-1.4,2.9-3,2.9
		c-1.7,0-3-1.3-3-2.9C61.6,77.1,62.9,75.8,64.6,75.8L64.6,75.8z"/>
	<path fill-rule="evenodd" clip-rule="evenodd" fill="#DADADA" d="M48.7,95.1c1.7,0,3,1.3,3,2.9c0,1.6-1.4,2.9-3,2.9
		c-1.7,0-3-1.3-3-2.9C45.6,96.4,47,95.1,48.7,95.1L48.7,95.1z"/>
	<path fill-rule="evenodd" clip-rule="evenodd" fill="#DADADA" d="M203.7,10.5c1.7,0,3,1.3,3,2.9c0,1.6-1.4,2.9-3,2.9
		c-1.7,0-3-1.3-3-2.9C200.6,11.8,202,10.5,203.7,10.5L203.7,10.5z"/>
	<path fill-rule="evenodd" clip-rule="evenodd" fill="#DADADA" d="M84.2,56.8c1.7,0,3,1.3,3,2.9c0,1.6-1.4,2.9-3,2.9
		c-1.7,0-3-1.3-3-2.9C81.2,58.1,82.5,56.8,84.2,56.8L84.2,56.8z"/>
	<path fill-rule="evenodd" clip-rule="evenodd" fill="#DADADA" d="M103.9,42.2c1.7,0,3,1.3,3,2.9c0,1.6-1.4,2.9-3,2.9
		c-1.7,0-3-1.3-3-2.9C100.9,43.5,102.2,42.2,103.9,42.2L103.9,42.2z"/>
	<path fill-rule="evenodd" clip-rule="evenodd" fill="#DADADA" d="M175.9,13.3c1.7,0,3,1.3,3,2.9c0,1.6-1.4,2.9-3,2.9
		c-1.7,0-3-1.3-3-2.9C172.9,14.7,174.2,13.3,175.9,13.3L175.9,13.3z"/>
	<path fill-rule="evenodd" clip-rule="evenodd" fill="#DADADA" d="M126.3,29.4c1.7,0,3,1.3,3,2.9c0,1.6-1.4,2.9-3,2.9
		c-1.7,0-3-1.3-3-2.9C123.3,30.7,124.7,29.4,126.3,29.4L126.3,29.4z"/>
	<path fill-rule="evenodd" clip-rule="evenodd" fill="#DADADA" d="M150,20c1.7,0,3,1.3,3,2.9c0,1.6-1.4,2.9-3,2.9
		c-1.7,0-3-1.3-3-2.9C147,21.3,148.4,20,150,20L150,20z"/>
	<path fill-rule="evenodd" clip-rule="evenodd" fill="#DADADA" d="M271.5,8.5c1.2,0,2.2,1,2.2,2.1c0,1.2-1,2.1-2.2,2.1
		c-1.2,0-2.2-1-2.2-2.1C269.3,9.4,270.3,8.5,271.5,8.5L271.5,8.5z"/>
	<path fill-rule="evenodd" clip-rule="evenodd" fill="#DADADA" d="M243.5,2.3c1.2,0,2.2,1,2.2,2.2c0,1.2-1,2.1-2.2,2.1
		c-1.2,0-2.2-1-2.2-2.1C241.3,3.3,242.3,2.3,243.5,2.3L243.5,2.3z"/>
	<path fill-rule="evenodd" clip-rule="evenodd" fill="#DADADA" d="M399.2,113.1c1.2,0,2.2,1,2.2,2.1c0,1.2-1,2.1-2.2,2.1
		c-1.2,0-2.2-1-2.2-2.1C397,114.1,398,113.1,399.2,113.1L399.2,113.1z"/>
	<path fill-rule="evenodd" clip-rule="evenodd" fill="#DADADA" d="M300.7,19.5c1.2,0,2.2,1,2.2,2.1c0,1.2-1,2.1-2.2,2.1
		c-1.2,0-2.2-1-2.2-2.1C298.5,20.5,299.5,19.5,300.7,19.5L300.7,19.5z"/>
	<path fill-rule="evenodd" clip-rule="evenodd" fill="#DADADA" d="M325.7,33c1.2,0,2.2,1,2.2,2.1c0,1.2-1,2.1-2.2,2.1
		c-1.2,0-2.2-1-2.2-2.1C323.5,33.9,324.4,33,325.7,33L325.7,33z"/>
	<path fill-rule="evenodd" clip-rule="evenodd" fill="#DADADA" d="M385.6,90.2c1.2,0,2.2,1,2.2,2.1c0,1.2-1,2.1-2.2,2.1
		c-1.2,0-2.2-1-2.2-2.1C383.3,91.2,384.3,90.2,385.6,90.2L385.6,90.2z"/>
	<path fill-rule="evenodd" clip-rule="evenodd" fill="#DADADA" d="M216.4,0c1.2,0,2.2,1,2.2,2.1c0,1.2-1,2.1-2.2,2.1
		c-1.2,0-2.2-1-2.2-2.1C214.2,1,215.2,0,216.4,0L216.4,0z"/>
	<path fill-rule="evenodd" clip-rule="evenodd" fill="#DADADA" d="M160,6.5c1.2,0,2.2,1,2.2,2.1c0,1.2-1,2.1-2.2,2.1
		c-1.2,0-2.2-1-2.2-2.1C157.8,7.4,158.8,6.5,160,6.5L160,6.5z"/>
	<path fill-rule="evenodd" clip-rule="evenodd" fill="#DADADA" d="M188.6,1.4c1.2,0,2.2,1,2.2,2.1c0,1.2-1,2.1-2.2,2.1
		c-1.2,0-2.2-1-2.2-2.1C186.4,2.4,187.4,1.4,188.6,1.4L188.6,1.4z"/>
	<path fill-rule="evenodd" clip-rule="evenodd" fill="#DADADA" d="M348.7,50.2c1.2,0,2.2,1,2.2,2.1c0,1.2-1,2.1-2.2,2.1
		c-1.2,0-2.2-1-2.2-2.1C346.5,51.2,347.5,50.2,348.7,50.2L348.7,50.2z"/>
	<path fill-rule="evenodd" clip-rule="evenodd" fill="#DADADA" d="M410.1,136.9c1.2,0,2.2,1,2.2,2.1c0,1.2-1,2.1-2.2,2.1
		c-1.2,0-2.2-1-2.2-2.1C407.9,137.9,408.9,136.9,410.1,136.9L410.1,136.9z"/>
	<path fill-rule="evenodd" clip-rule="evenodd" fill="#DADADA" d="M133.6,15.5c1.2,0,2.2,1,2.2,2.1c0,1.2-1,2.2-2.2,2.2
		c-1.2,0-2.2-1-2.2-2.2C131.4,16.5,132.4,15.5,133.6,15.5L133.6,15.5z"/>
	<path fill-rule="evenodd" clip-rule="evenodd" fill="#DADADA" d="M108.8,27.1c1.2,0,2.2,1,2.2,2.1c0,1.2-1,2.1-2.2,2.1
		c-1.2,0-2.2-1-2.2-2.1C106.6,28.1,107.6,27.1,108.8,27.1L108.8,27.1z"/>
	<path fill-rule="evenodd" clip-rule="evenodd" fill="#DADADA" d="M422.3,190.6c1.2,0,2.2,1,2.2,2.1c0,1.2-1,2.1-2.2,2.1
		c-1.2,0-2.2-1-2.2-2.1C420.1,191.6,421.1,190.6,422.3,190.6L422.3,190.6z"/>
	<path fill-rule="evenodd" clip-rule="evenodd" fill="#DADADA" d="M368.9,68.9c1.2,0,2.2,1,2.2,2.2c0,1.2-1,2.1-2.2,2.1
		c-1.2,0-2.2-1-2.2-2.1C366.6,69.9,367.6,68.9,368.9,68.9L368.9,68.9z"/>
	<path fill-rule="evenodd" clip-rule="evenodd" fill="#DADADA" d="M417.8,162.4c1.2,0,2.2,1,2.2,2.2c0,1.2-1,2.1-2.2,2.1
		c-1.2,0-2.2-1-2.2-2.1C415.6,163.4,416.6,162.4,417.8,162.4L417.8,162.4z"/>
	<path fill-rule="evenodd" clip-rule="evenodd" fill="#DADADA" d="M420,245c1.2,0,2.2,1,2.2,2.1c0,1.2-1,2.2-2.2,2.2
		c-1.2,0-2.2-1-2.2-2.2C417.8,246,418.8,245,420,245L420,245z"/>
	<path fill-rule="evenodd" clip-rule="evenodd" fill="#DADADA" d="M423.2,217.2c1.2,0,2.2,1,2.2,2.1c0,1.2-1,2.1-2.2,2.1
		c-1.2,0-2.2-1-2.2-2.1C421,218.2,422,217.2,423.2,217.2L423.2,217.2z"/>
	<path fill-rule="evenodd" clip-rule="evenodd" fill="#DADADA" d="M337.1,380.2c1.2,0,2.2,1,2.2,2.1c0,1.2-1,2.2-2.2,2.2
		c-1.2,0-2.2-1-2.2-2.2C334.9,381.1,335.9,380.2,337.1,380.2L337.1,380.2z"/>
	<path fill-rule="evenodd" clip-rule="evenodd" fill="#DADADA" d="M414.1,271.9c1.2,0,2.2,1,2.2,2.1c0,1.2-1,2.1-2.2,2.1
		c-1.2,0-2.2-1-2.2-2.1C411.9,272.9,412.9,271.9,414.1,271.9L414.1,271.9z"/>
	<path fill-rule="evenodd" clip-rule="evenodd" fill="#DADADA" d="M404.6,297.3c1.2,0,2.2,1,2.2,2.1c0,1.2-1,2.1-2.2,2.1
		c-1.2,0-2.2-1-2.2-2.1C402.4,298.2,403.4,297.3,404.6,297.3L404.6,297.3z"/>
	<path fill-rule="evenodd" clip-rule="evenodd" fill="#DADADA" d="M357.3,363.4c1.2,0,2.2,1,2.2,2.1c0,1.2-1,2.2-2.2,2.2
		c-1.2,0-2.2-1-2.2-2.2C355.1,364.4,356.1,363.4,357.3,363.4L357.3,363.4z"/>
	<path fill-rule="evenodd" clip-rule="evenodd" fill="#DADADA" d="M391.8,321.1c1.2,0,2.2,1,2.2,2.1c0,1.2-1,2.1-2.2,2.1
		c-1.2,0-2.2-1-2.2-2.1C389.5,322.1,390.5,321.1,391.8,321.1L391.8,321.1z"/>
	<path fill-rule="evenodd" clip-rule="evenodd" fill="#DADADA" d="M376,343.1c1.2,0,2.2,1,2.2,2.2c0,1.2-1,2.1-2.2,2.1
		s-2.2-1-2.2-2.1C373.8,344.1,374.8,343.1,376,343.1L376,343.1z"/>
	<path fill-rule="evenodd" clip-rule="evenodd" fill="#DADADA" d="M146.5,409.8c1.2,0,2.2,1,2.2,2.1c0,1.2-1,2.1-2.2,2.1
		c-1.2,0-2.2-1-2.2-2.1C144.3,410.8,145.2,409.8,146.5,409.8L146.5,409.8z"/>
	<path fill-rule="evenodd" clip-rule="evenodd" fill="#DADADA" d="M121.3,400.1c1.2,0,2.2,1,2.2,2.2c0,1.2-1,2.1-2.2,2.1
		c-1.2,0-2.2-1-2.2-2.2C119.1,401,120.1,400.1,121.3,400.1L121.3,400.1z"/>
	<path fill-rule="evenodd" clip-rule="evenodd" fill="#DADADA" d="M313,395.4c1.2,0,2.2,1,2.2,2.1c0,1.2-1,2.2-2.2,2.2
		c-1.2,0-2.2-1-2.2-2.2C310.8,396.4,311.8,395.4,313,395.4L313,395.4z"/>
	<path fill-rule="evenodd" clip-rule="evenodd" fill="#DADADA" d="M174.5,417.2c1.2,0,2.2,1,2.2,2.2c0,1.2-1,2.1-2.2,2.1
		c-1.2,0-2.2-1-2.2-2.1C172.3,418.2,173.3,417.2,174.5,417.2L174.5,417.2z"/>
	<path fill-rule="evenodd" clip-rule="evenodd" fill="#DADADA" d="M203.1,420.3c1.2,0,2.2,1,2.2,2.1c0,1.2-1,2.1-2.2,2.1
		c-1.2,0-2.2-1-2.2-2.1C200.9,421.3,201.9,420.3,203.1,420.3L203.1,420.3z"/>
	<path fill-rule="evenodd" clip-rule="evenodd" fill="#DADADA" d="M288.3,406.8c1.2,0,2.2,1,2.2,2.1c0,1.2-1,2.2-2.2,2.2
		c-1.2,0-2.2-1-2.2-2.2C286.1,407.7,287.1,406.8,288.3,406.8L288.3,406.8z"/>
	<path fill-rule="evenodd" clip-rule="evenodd" fill="#DADADA" d="M233.3,419.7c1.2,0,2.2,1,2.2,2.1c0,1.2-1,2.2-2.2,2.2
		c-1.2,0-2.2-1-2.2-2.2C231.1,420.7,232.1,419.7,233.3,419.7L233.3,419.7z"/>
	<path fill-rule="evenodd" clip-rule="evenodd" fill="#DADADA" d="M262.2,414.6c1.2,0,2.2,1,2.2,2.1c0,1.2-1,2.2-2.2,2.2
		c-1.2,0-2.2-1-2.2-2.2C259.9,415.5,260.9,414.6,262.2,414.6L262.2,414.6z"/>
	<path fill-rule="evenodd" clip-rule="evenodd" fill="#DADADA" d="M6.1,253.5c1.2,0,2.2,1,2.2,2.1c0,1.2-1,2.1-2.2,2.1
		c-1.2,0-2.2-1-2.2-2.1C3.8,254.5,4.8,253.5,6.1,253.5L6.1,253.5z"/>
	<path fill-rule="evenodd" clip-rule="evenodd" fill="#DADADA" d="M2.2,226.7c1.2,0,2.2,1,2.2,2.1c0,1.2-1,2.1-2.2,2.1
		C1,231,0,230,0,228.8C0,227.6,1,226.7,2.2,226.7L2.2,226.7z"/>
	<path fill-rule="evenodd" clip-rule="evenodd" fill="#DADADA" d="M97.5,386.9c1.2,0,2.2,1,2.2,2.1c0,1.2-1,2.1-2.2,2.1
		c-1.2,0-2.2-1-2.2-2.1C95.3,387.9,96.3,386.9,97.5,386.9L97.5,386.9z"/>
	<path fill-rule="evenodd" clip-rule="evenodd" fill="#DADADA" d="M14.2,281.7c1.2,0,2.2,1,2.2,2.1s-1,2.1-2.2,2.1
		c-1.2,0-2.2-1-2.2-2.1S13,281.7,14.2,281.7L14.2,281.7z"/>
	<path fill-rule="evenodd" clip-rule="evenodd" fill="#DADADA" d="M24.8,306.1c1.2,0,2.2,1,2.2,2.1c0,1.2-1,2.1-2.2,2.1
		c-1.2,0-2.2-1-2.2-2.1C22.6,307.1,23.6,306.1,24.8,306.1L24.8,306.1z"/>
	<path fill-rule="evenodd" clip-rule="evenodd" fill="#DADADA" d="M74.3,369.5c1.2,0,2.2,1,2.2,2.2c0,1.2-1,2.1-2.2,2.1
		c-1.2,0-2.2-1-2.2-2.1C72.1,370.5,73.1,369.5,74.3,369.5L74.3,369.5z"/>
	<path fill-rule="evenodd" clip-rule="evenodd" fill="#DADADA" d="M38.6,329c1.2,0,2.2,1,2.2,2.1c0,1.2-1,2.2-2.2,2.2
		c-1.2,0-2.2-1-2.2-2.2C36.3,330,37.3,329,38.6,329L38.6,329z"/>
	<path fill-rule="evenodd" clip-rule="evenodd" fill="#DADADA" d="M53.7,348.6c1.2,0,2.2,1,2.2,2.1c0,1.2-1,2.2-2.2,2.2
		c-1.2,0-2.2-1-2.2-2.2C51.4,349.6,52.4,348.6,53.7,348.6L53.7,348.6z"/>
	<path fill-rule="evenodd" clip-rule="evenodd" fill="#DADADA" d="M20.7,122.6c1.2,0,2.2,1,2.2,2.1c0,1.2-1,2.1-2.2,2.1
		c-1.2,0-2.2-1-2.2-2.1C18.5,123.5,19.5,122.6,20.7,122.6L20.7,122.6z"/>
	<path fill-rule="evenodd" clip-rule="evenodd" fill="#DADADA" d="M11.7,146.4c1.2,0,2.2,1,2.2,2.1c0,1.2-1,2.1-2.2,2.1
		c-1.2,0-2.2-1-2.2-2.1C9.5,147.4,10.5,146.4,11.7,146.4L11.7,146.4z"/>
	<path fill-rule="evenodd" clip-rule="evenodd" fill="#DADADA" d="M1.9,199.5c1.2,0,2.2,1,2.2,2.1c0,1.2-1,2.1-2.2,2.1
		c-1.2,0-2.2-1-2.2-2.1C-0.3,200.4,0.7,199.5,1.9,199.5L1.9,199.5z"/>
	<path fill-rule="evenodd" clip-rule="evenodd" fill="#DADADA" d="M32.2,100.7c1.2,0,2.2,1,2.2,2.1c0,1.2-1,2.1-2.2,2.1
		c-1.2,0-2.2-1-2.2-2.1C30,101.6,31,100.7,32.2,100.7L32.2,100.7z"/>
	<path fill-rule="evenodd" clip-rule="evenodd" fill="#DADADA" d="M87.4,41.2c1.2,0,2.2,1,2.2,2.1c0,1.2-1,2.1-2.2,2.1
		c-1.2,0-2.2-1-2.2-2.1C85.2,42.1,86.2,41.2,87.4,41.2L87.4,41.2z"/>
	<path fill-rule="evenodd" clip-rule="evenodd" fill="#DADADA" d="M4.7,173.5c1.2,0,2.2,1,2.2,2.1c0,1.2-1,2.1-2.2,2.1
		c-1.2,0-2.2-1-2.2-2.1C2.5,174.5,3.5,173.5,4.7,173.5L4.7,173.5z"/>
	<path fill-rule="evenodd" clip-rule="evenodd" fill="#DADADA" d="M67.6,57.7c1.2,0,2.2,1,2.2,2.1c0,1.2-1,2.1-2.2,2.1
		c-1.2,0-2.2-1-2.2-2.1C65.3,58.6,66.3,57.7,67.6,57.7L67.6,57.7z"/>
	<path fill-rule="evenodd" clip-rule="evenodd" fill="#DADADA" d="M47.9,79.1c1.2,0,2.2,1,2.2,2.1c0,1.2-1,2.1-2.2,2.1
		c-1.2,0-2.2-1-2.2-2.1C45.6,80,46.6,79.1,47.9,79.1L47.9,79.1z"/>
</g>
<g>
	<path fill-rule="evenodd" clip-rule="evenodd" fill="#1D274C" d="M132,204c-1-6.8-3.2-11.6-6.7-14.3c-3.5-2.7-8.4-4.1-14.9-4.1
		c-7.7,0-13.7,2.9-18,8.7c-4.3,5.8-6.4,14.2-6.4,25.1c0,9.8,2.1,17.3,6.2,22.3c4.1,5,10.1,7.5,18,7.5c7.2,0,12.6-1.6,16.2-4.7
		c3.6-3.1,5.4-8.5,5.6-16h46.3c-0.8,18-6.9,31-18.2,39c-11.3,7.9-28,11.9-50.3,11.9c-22.6,0-39.9-5.1-52.1-15.3
		c-12.1-10.2-18.2-24.9-18.2-44c0-20.1,6.3-35.7,18.9-46.8c12.6-11.1,30.3-16.6,53.1-16.6c19.6,0,35,3.8,46.2,11.4
		c11.2,7.6,17.6,19.6,19,35.9H132L132,204z"/>
	<path fill-rule="evenodd" clip-rule="evenodd" fill="#1D274C" d="M279.8,226.7h-1c-16.6,0-27.9,1.1-33.9,3.3c-6,2.2-9,5.7-9,10.4
		c0,3.3,1.4,5.8,4.3,7.6c2.9,1.8,7.5,2.6,13.9,2.6c8.5,0,14.9-2,19.3-6.1c4.4-4,6.6-9.9,6.6-17.6V226.7L279.8,226.7z M280.8,260.2
		c-2.1,6-7.5,10.8-16.3,14.2c-8.8,3.4-19.2,5.1-31.2,5.1c-14,0-24.9-3.2-32.7-9.5c-7.8-6.3-11.7-15.3-11.7-26.9
		c0-7.2,1.5-13.6,4.5-19.3c3-5.7,7.1-10.2,12.3-13.5c5-3.3,11.5-5.6,19.5-6.9c7.9-1.2,20.3-1.9,37-1.9h17.6c0,0.9,0,1,0.1,0.3
		c0.1-0.7,0.1-1.1,0.1-1.3c0-5.4-1.5-9.5-4.5-12.3c-3-2.8-7.4-4.2-13.4-4.2c-7,0-12.1,0.9-15.2,2.8c-3.1,1.9-5.1,5.5-5.8,10.9h-45.4
		c1.4-14.8,7.6-25.2,18.7-31.4c11-6.2,27.2-9.2,48.4-9.2c20.5,0,35.8,3.7,45.8,11.1c10,7.4,15,18.8,15,34.3v57.3
		c0,3.1,0.1,5.8,0.4,7.9c0.3,2.2,0.8,5.2,1.6,9.1h-41.5c-1.3-3-2.2-5.8-2.7-8.4c-0.5-2.6-0.7-5.4-0.7-8.4V260.2L280.8,260.2z"/>
	<polygon fill-rule="evenodd" clip-rule="evenodd" fill="#1D274C" points="349.8,276.9 349.8,110.9 394.8,110.9 394.8,276.9 
		349.8,276.9 	"/>
	<path fill-rule="evenodd" clip-rule="evenodd" fill="#1D274C" d="M505.2,204c-1-6.8-3.2-11.6-6.7-14.3c-3.4-2.7-8.4-4.1-14.9-4.1
		c-7.7,0-13.7,2.9-18,8.7c-4.3,5.8-6.4,14.2-6.4,25.1c0,9.8,2.1,17.3,6.2,22.3c4.1,5,10.1,7.5,18,7.5c7.2,0,12.6-1.6,16.2-4.7
		c3.6-3.1,5.4-8.5,5.6-16h46.3c-0.8,18-6.9,31-18.2,39c-11.3,7.9-28,11.9-50.2,11.9c-22.6,0-39.9-5.1-52.1-15.3
		c-12.1-10.2-18.2-24.9-18.2-44c0-20.1,6.3-35.7,18.9-46.8c12.6-11.1,30.3-16.6,53.1-16.6c19.6,0,35,3.8,46.2,11.4
		c11.2,7.6,17.6,19.6,19,35.9H505.2L505.2,204z"/>
	<path fill-rule="evenodd" clip-rule="evenodd" fill="#1D274C" d="M637.1,279.6c-23.4,0-41.4-5.3-53.9-15.8
		c-12.5-10.5-18.8-25.8-18.8-45.7c0-19.8,6.4-34.9,19.2-45.4c12.9-10.5,31.2-15.8,55-15.8c24,0,42.4,5.3,55.2,15.9
		c12.9,10.6,19.3,25.8,19.3,45.7c0,20.2-6.4,35.5-19.3,45.7C681.1,274.5,662.2,279.6,637.1,279.6L637.1,279.6z M639.2,249.9
		c8.4,0,15-2.9,19.9-8.6c4.8-5.8,7.3-13.8,7.3-24c0-10.3-2.5-18.4-7.4-24.3c-4.9-5.9-11.6-8.8-20-8.8c-8.8,0-15.5,2.8-20.3,8.5
		c-4.7,5.7-7.1,13.8-7.1,24.5c0,10.9,2.3,19.1,7,24.6C623.3,247.1,630.2,249.9,639.2,249.9L639.2,249.9z"/>
</g>
</svg>
